<?xml version="1.0" encoding="utf-8"?>
<!-- Generator: Adobe Illustrator 15.0.1, SVG Export Plug-In . SVG Version: 6.00 Build 0)  -->
<!DOCTYPE svg PUBLIC "-//W3C//DTD SVG 1.1//EN" "http://www.w3.org/Graphics/SVG/1.1/DTD/svg11.dtd">
<svg version="1.1" id="SlickSpec" xmlns="http://www.w3.org/2000/svg" xmlns:xlink="http://www.w3.org/1999/xlink" x="0px" y="0px"
	 width="512px" height="512px" viewBox="0 0 512 512" style="enable-background:new 0 0 512 512;" xml:space="preserve">
<path d="M52.713,222.354c-0.871-7.443-2.817-13.142-5.277-17.801c-2.45-4.642-5.399-8.236-8.298-11.516
	c-2.883-3.264-5.718-6.213-7.972-9.593c-2.246-3.367-3.925-7.168-4.519-12.157c-0.243-2.038-0.256-3.851-0.066-5.434
	c0.19-1.584,0.584-2.938,1.16-4.056c0.575-1.119,1.332-2,2.245-2.638c0.917-0.639,1.99-1.03,3.196-1.168
	c1.208-0.137,2.253,0.022,3.15,0.416c0.899,0.395,1.65,1.023,2.268,1.821c0.618,0.798,1.101,1.767,1.466,2.84
	c0.365,1.072,0.611,2.249,0.753,3.463c0.134,1.141,0.173,2.326,0.12,3.5c-0.052,1.173-0.194,2.333-0.421,3.425
	c-0.225,1.093-0.534,2.117-0.92,3.021c-0.385,0.902-0.848,1.682-1.38,2.286c0.347,0.491,0.695,0.903,1.049,1.245
	c0.354,0.34,0.712,0.609,1.078,0.812c0.366,0.204,0.738,0.341,1.12,0.42c0.381,0.078,0.773,0.097,1.174,0.064
	c1.121-0.095,2.099-0.554,2.921-1.315c0.825-0.762,1.493-1.829,1.99-3.137c0.5-1.31,0.828-2.861,0.972-4.59
	c0.145-1.73,0.105-3.639-0.13-5.66c-0.449-3.845-1.444-6.746-2.747-8.922c-1.3-2.171-2.905-3.618-4.58-4.565
	c-1.669-0.943-3.408-1.391-4.985-1.571c-1.571-0.179-2.985-0.093-4.015,0.033c-2.819,0.344-5.397,1.31-7.646,2.779
	c-2.237,1.461-4.151,3.421-5.661,5.77c-1.503,2.338-2.608,5.065-3.231,8.073c-0.622,3-0.767,6.288-0.348,9.761
	c0.59,4.909,2.165,9.009,4.247,12.77c2.088,3.772,4.688,7.211,7.314,10.767c2.639,3.571,5.301,7.263,7.481,11.512
	c2.188,4.264,3.882,9.076,4.567,14.86c0.335,2.833,0.368,5.377,0.138,7.599c-0.229,2.219-0.722,4.112-1.438,5.654
	c-0.713,1.537-1.648,2.721-2.765,3.521c-1.115,0.798-2.408,1.217-3.843,1.226c-1.363,0.008-2.598-0.365-3.696-1.031
	c-1.096-0.666-2.056-1.625-2.872-2.79c-0.814-1.163-1.484-2.535-2-4.028s-0.879-3.109-1.079-4.763
	c-0.273-2.279-0.174-4.204,0.201-5.812c0.375-1.612,1.025-2.909,1.855-3.927c0.832-1.02,1.842-1.761,2.934-2.258
	c1.094-0.498,2.271-0.752,3.427-0.796c-0.272-1.741-0.758-3.154-1.38-4.29c-0.622-1.134-1.377-1.992-2.192-2.627
	c-0.812-0.635-1.683-1.047-2.534-1.29c-0.849-0.244-1.679-0.32-2.415-0.284c-1.47,0.072-2.917,0.607-4.229,1.594
	c-1.307,0.981-2.483,2.409-3.419,4.268c-0.934,1.854-1.632,4.137-1.988,6.835c-0.356,2.695-0.374,5.808,0.053,9.331
	c0.482,3.977,1.394,7.357,2.637,10.194c1.246,2.843,2.827,5.147,4.647,6.959c1.828,1.817,3.898,3.144,6.115,4.02
	c2.23,0.882,4.609,1.31,7.039,1.325c3.108,0.021,6.111-0.643,8.832-2.01c2.741-1.376,5.196-3.465,7.179-6.28
	c1.995-2.831,3.512-6.395,4.362-10.696C53.208,233.189,53.389,228.137,52.713,222.354z"/>
<path d="M85.599,166.924c0.548,1.341,1.259,2.525,2.085,3.497c0.828,0.974,1.771,1.735,2.784,2.229
	c1.015,0.496,2.101,0.721,3.211,0.623c1.109-0.099,2.135-0.514,3.039-1.185c0.906-0.672,1.689-1.599,2.312-2.719
	c0.623-1.123,1.083-2.436,1.343-3.877c0.26-1.444,0.319-3.014,0.137-4.645c-0.183-1.638-0.588-3.176-1.164-4.555
	c-0.577-1.376-1.32-2.593-2.181-3.587c-0.86-0.992-1.835-1.764-2.874-2.254c-1.036-0.49-2.135-0.7-3.242-0.571
	c-1.109,0.129-2.122,0.582-3.003,1.288c-0.88,0.704-1.631,1.663-2.221,2.806c-0.587,1.141-1.015,2.466-1.25,3.908
	c-0.235,1.439-0.277,2.996-0.096,4.604C84.661,164.087,85.049,165.585,85.599,166.924z"/>
<path d="M208.65,238.933c-0.21,0.117-0.439,0.227-0.739,0.322c-0.299,0.096-0.667,0.175-1.149,0.233
	c-0.48,0.06-1.077,0.097-1.835,0.106c-0.979,0.011-1.792-0.153-2.465-0.454c-0.673-0.302-1.208-0.741-1.632-1.282
	c-0.424-0.54-0.736-1.184-0.961-1.893c-0.227-0.708-0.37-1.482-0.452-2.287c-0.045-0.441-0.068-0.882-0.073-1.323
	c-0.006-0.439,0.003-0.878,0.021-1.312c0.017-0.433,0.043-0.863,0.069-1.285c0.027-0.424,0.053-0.84,0.072-1.246l0.542-8.119
	c0.041-0.531,0.065-1.063,0.077-1.592c0.01-0.528,0.009-1.055-0.004-1.574c-0.014-0.521-0.038-1.034-0.072-1.54
	c-0.033-0.507-0.076-1.005-0.126-1.49c-0.266-2.595-0.802-5.067-1.603-7.31c-0.8-2.242-1.862-4.25-3.179-5.917
	c-1.313-1.664-2.877-2.986-4.682-3.858c-1.799-0.87-3.833-1.294-6.096-1.165c-0.338,0.02-0.673,0.06-1.007,0.116
	c-0.332,0.056-0.661,0.127-0.988,0.208c-0.328,0.08-0.654,0.17-0.978,0.264c-0.324,0.094-0.648,0.193-0.972,0.29l22.502-24.268
	l-12.45,0.992l-20.854,25.958l3.058-56.958l-17.154,5.146l-3.909,78.979l-0.025,0.002c-1.175,2.223-2.348,4.316-3.582,6.205
	c-1.229,1.882-2.52,3.562-3.936,4.967c-1.411,1.398-2.946,2.524-4.67,3.305c-1.716,0.776-3.619,1.21-5.769,1.229
	c-1.3,0.012-2.452-0.126-3.465-0.501c-1.011-0.374-1.883-0.981-2.63-1.907c-0.745-0.925-1.364-2.168-1.866-3.811
	c-0.5-1.644-0.887-3.688-1.166-6.223c-0.456-4.142-0.551-8.973-0.333-13.903c0.219-4.943,0.753-9.993,1.558-14.549
	c0.809-4.573,1.892-8.652,3.201-11.622c1.316-2.983,2.861-4.849,4.587-4.974c0.52-0.037,0.988,0.083,1.405,0.341
	c0.417,0.262,0.783,0.663,1.097,1.189c0.313,0.526,0.575,1.177,0.784,1.937c0.21,0.758,0.367,1.625,0.47,2.584
	c0.07,0.65,0.117,1.33,0.14,2.039c0.021,0.709,0.02,1.446-0.009,2.209c-0.028,0.762-0.081,1.55-0.161,2.359
	c-0.08,0.809-0.185,1.639-0.317,2.488c0.364,0.29,0.725,0.541,1.08,0.751c0.356,0.213,0.706,0.385,1.048,0.52
	c0.343,0.134,0.678,0.23,1.006,0.288c0.327,0.059,0.646,0.079,0.955,0.062c0.805-0.042,1.554-0.314,2.21-0.815
	c0.657-0.502,1.222-1.234,1.662-2.197c0.439-0.964,0.753-2.159,0.904-3.585c0.153-1.428,0.145-3.085-0.058-4.975
	c-0.191-1.78-0.538-3.55-1.106-5.19c-0.568-1.642-1.359-3.153-2.435-4.417c-1.075-1.261-2.434-2.274-4.14-2.921
	c-1.702-0.644-3.745-0.924-6.19-0.725c-5.531,0.449-9.828,3.085-13.135,7.037c-3.277,3.914-5.592,9.131-7.167,14.811
	c-1.566,5.644-2.407,11.761-2.737,17.524c-0.33,5.746-0.151,11.156,0.323,15.413c0.008,0.062,0.015,0.125,0.021,0.188
	c0.008,0.063,0.014,0.126,0.022,0.188c0.006,0.062,0.015,0.124,0.021,0.187c0.008,0.061,0.016,0.123,0.023,0.185
	c-0.331,1.248-0.739,2.398-1.213,3.42c-0.474,1.021-1.014,1.913-1.607,2.651c-0.593,0.735-1.243,1.318-1.935,1.719
	c-0.692,0.398-1.429,0.616-2.198,0.625c-0.705,0.009-1.326-0.066-1.866-0.245c-0.539-0.18-0.999-0.464-1.385-0.876
	c-0.387-0.411-0.699-0.95-0.943-1.64c-0.245-0.689-0.421-1.529-0.536-2.543c-0.036-0.323-0.067-0.658-0.091-1.007
	c-0.025-0.349-0.044-0.71-0.055-1.092c-0.011-0.38-0.015-0.776-0.009-1.196c0.004-0.421,0.017-0.862,0.04-1.331l1.704-50.021
	l-14.436,1.152l-1.407,46.472c-0.161,1.793-0.462,3.479-0.882,5c-0.418,1.517-0.956,2.869-1.59,3.998
	c-0.632,1.126-1.361,2.029-2.164,2.653c-0.801,0.624-1.675,0.969-2.602,0.98c-0.669,0.007-1.256-0.065-1.768-0.239
	c-0.511-0.175-0.947-0.45-1.313-0.85c-0.367-0.4-0.666-0.924-0.899-1.592c-0.235-0.669-0.405-1.483-0.519-2.467
	c-0.036-0.315-0.068-0.64-0.093-0.979c-0.025-0.337-0.043-0.689-0.057-1.059c-0.012-0.368-0.017-0.755-0.016-1.162
	c0.002-0.408,0.012-0.837,0.03-1.291l2.165-77.633l-13.745,4.433l-1.754,70.864c-0.02,0.833-0.031,1.648-0.029,2.444
	c0.001,0.794,0.013,1.57,0.037,2.322c0.024,0.753,0.06,1.481,0.11,2.186c0.048,0.705,0.11,1.385,0.186,2.036
	c0.338,2.901,0.898,5.383,1.634,7.475c0.734,2.092,1.647,3.796,2.691,5.139c1.046,1.347,2.226,2.331,3.493,2.982
	c1.271,0.651,2.631,0.968,4.035,0.975c0.96,0.004,2.062-0.102,3.236-0.428c1.178-0.328,2.431-0.881,3.689-1.772
	c1.265-0.894,2.535-2.129,3.742-3.822c1.211-1.699,2.36-3.859,3.374-6.598c0.5,2.211,1.16,4.108,1.947,5.712
	c0.789,1.605,1.708,2.917,2.724,3.954c1.019,1.039,2.137,1.801,3.323,2.306c1.188,0.506,2.448,0.753,3.743,0.759
	c1.03,0.005,2.217-0.105,3.482-0.452c1.27-0.348,2.623-0.934,3.982-1.881c1.366-0.948,2.738-2.262,4.043-4.064
	c1.31-1.808,2.551-4.106,3.647-7.023c0.794,2.367,1.766,4.393,2.895,6.101c1.13,1.711,2.42,3.105,3.851,4.205
	c1.435,1.104,3.011,1.911,4.712,2.447c1.708,0.536,3.542,0.798,5.484,0.808c2.672,0.012,5.126-0.467,7.381-1.344
	c2.268-0.882,4.333-2.167,6.219-3.768c1.895-1.606,3.607-3.529,5.161-5.675c1.56-2.154,2.957-4.531,4.216-7.039l-0.842,17.007
	l16.446,0.054l2.01-38.622c0.727-0.933,1.428-1.78,2.114-2.526c0.687-0.748,1.36-1.396,2.027-1.93
	c0.668-0.537,1.331-0.959,1.999-1.256c0.668-0.296,1.34-0.466,2.027-0.495c0.778-0.034,1.458,0.126,2.048,0.458
	c0.59,0.334,1.089,0.837,1.506,1.49c0.417,0.654,0.751,1.455,1.012,2.382c0.26,0.927,0.446,1.978,0.567,3.131
	c0.045,0.442,0.085,0.903,0.117,1.376c0.032,0.475,0.056,0.963,0.069,1.461s0.016,1.006,0.007,1.52
	c-0.01,0.513-0.032,1.032-0.068,1.554l-0.313,6.221c-0.044,0.758-0.073,1.494-0.089,2.211c-0.016,0.718-0.019,1.416-0.008,2.099
	c0.012,0.684,0.037,1.35,0.076,2.002c0.039,0.653,0.09,1.293,0.156,1.922c0.303,2.891,0.902,5.457,1.786,7.685
	c0.886,2.229,2.058,4.118,3.505,5.651c1.452,1.535,3.183,2.714,5.18,3.511c2.007,0.799,4.288,1.218,6.831,1.229
	c0.806,0.002,1.864-0.313,2.99-0.967c1.128-0.658,2.326-1.655,3.407-3.013c1.083-1.363,2.052-3.088,2.715-5.193
	c0.664-2.109,1.023-4.6,0.887-7.486C209.044,238.691,208.857,238.816,208.65,238.933z"/>
<path d="M271.17,192.013c-3.626-5.864-8.122-10.378-12.55-14.485c-4.399-4.08-8.732-7.759-12.107-11.994
	c-3.359-4.213-5.785-8.992-6.403-15.311c-0.252-2.582-0.157-4.886,0.247-6.905c0.404-2.021,1.12-3.758,2.105-5.199
	c0.99-1.447,2.251-2.597,3.75-3.441c1.502-0.848,3.243-1.388,5.183-1.61c1.946-0.223,3.613-0.059,5.026,0.409
	c1.417,0.469,2.58,1.244,3.516,2.241c0.938,0.998,1.647,2.217,2.16,3.574s0.827,2.852,0.975,4.398
	c0.139,1.453,0.12,2.964-0.042,4.465c-0.164,1.498-0.471,2.984-0.906,4.387c-0.437,1.4-1.001,2.718-1.682,3.881
	c-0.679,1.161-1.472,2.169-2.365,2.956c0.527,0.614,1.062,1.129,1.609,1.553c0.549,0.424,1.108,0.756,1.682,1.004
	c0.575,0.249,1.165,0.415,1.772,0.503c0.608,0.089,1.233,0.103,1.882,0.048c1.803-0.152,3.404-0.766,4.777-1.761
	c1.379-0.999,2.528-2.381,3.422-4.068c0.894-1.691,1.531-3.686,1.885-5.903c0.354-2.219,0.421-4.661,0.178-7.24
	c-0.463-4.908-1.871-8.587-3.826-11.324c-1.95-2.731-4.439-4.519-7.073-5.664c-2.622-1.141-5.386-1.642-7.908-1.808
	c-2.51-0.165-4.784,0.003-6.447,0.206c-4.528,0.554-8.703,1.887-12.383,3.847c-3.651,1.946-6.819,4.511-9.365,7.55
	c-2.533,3.02-4.457,6.516-5.635,10.35c-1.174,3.82-1.612,7.984-1.174,12.366c0.618,6.191,2.845,11.335,5.896,16.036
	c3.064,4.722,6.966,9.013,10.906,13.459c3.962,4.472,7.961,9.098,11.157,14.446c3.209,5.37,5.597,11.448,6.308,18.769
	c0.348,3.585,0.231,6.804-0.286,9.617c-0.515,2.808-1.429,5.207-2.674,7.158c-1.24,1.944-2.809,3.442-4.638,4.456
	c-1.824,1.011-3.903,1.541-6.179,1.556c-2.168,0.013-4.104-0.454-5.802-1.291c-1.692-0.836-3.148-2.039-4.361-3.503
	c-1.211-1.462-2.18-3.185-2.898-5.062c-0.717-1.876-1.185-3.906-1.392-5.986c-0.287-2.867-0.007-5.291,0.688-7.32
	c0.696-2.033,1.809-3.674,3.187-4.965c1.383-1.297,3.032-2.242,4.793-2.883c1.77-0.643,3.651-0.978,5.491-1.046
	c-0.319-2.198-1-3.979-1.916-5.405c-0.915-1.426-2.062-2.498-3.315-3.29c-1.25-0.788-2.604-1.295-3.939-1.59
	c-1.331-0.293-2.641-0.377-3.807-0.321c-2.33,0.113-4.646,0.813-6.779,2.075c-2.123,1.257-4.063,3.07-5.656,5.422
	c-1.584,2.341-2.825,5.219-3.556,8.614c-0.729,3.386-0.952,7.294-0.503,11.712c0.506,4.984,1.723,9.219,3.495,12.773
	c1.776,3.561,4.115,6.448,6.863,8.721c2.763,2.283,5.943,3.949,9.388,5.055c3.465,1.11,7.205,1.653,11.055,1.679
	c4.941,0.034,9.769-0.797,14.201-2.519c4.475-1.736,8.543-4.377,11.914-7.943c3.396-3.593,6.076-8.118,7.737-13.585
	c1.671-5.493,2.308-11.922,1.61-19.274C277.562,205.132,274.812,197.904,271.17,192.013z"/>
<path d="M351.096,175.645c-1.365-3.784-3.118-6.708-5.161-8.896c-2.036-2.182-4.358-3.631-6.867-4.478
	c-2.499-0.842-5.182-1.086-7.954-0.863c-2.027,0.163-3.91,0.526-5.658,1.055c-1.742,0.527-3.35,1.221-4.836,2.047
	c-1.48,0.825-2.841,1.784-4.09,2.844c-1.245,1.059-2.381,2.218-3.416,3.449l1.257-13.965l-22.273,1.916l-11.728,138.801
	l21.715-5.323l3.913-42.919c0.496,0.841,1.115,1.661,1.887,2.418c0.772,0.757,1.695,1.452,2.799,2.043
	c1.105,0.592,2.391,1.081,3.887,1.424c1.501,0.343,3.213,0.54,5.167,0.549c7.653,0.033,13.765-2.422,18.59-6.541
	c4.875-4.16,8.421-10.003,10.921-16.664c2.516-6.706,3.965-14.219,4.645-21.651c0.685-7.462,0.593-14.823,0.037-21.193
	C353.438,184.077,352.463,179.432,351.096,175.645z M331.451,205.508c-0.306,5.487-1.032,11.168-2.332,16.305
	c-1.294,5.116-3.155,9.684-5.727,12.979c-2.557,3.275-5.813,5.287-9.908,5.328c-0.896,0.009-1.688-0.116-2.381-0.34
	c-0.691-0.223-1.288-0.544-1.797-0.928c-0.509-0.385-0.931-0.832-1.276-1.306c-0.346-0.475-0.613-0.977-0.815-1.471l4.536-50.852
	c0.606-1.507,1.32-2.85,2.104-4.021c0.784-1.173,1.639-2.171,2.529-2.991c0.89-0.819,1.814-1.458,2.736-1.907
	c0.923-0.45,1.843-0.709,2.723-0.769c0.719-0.05,1.584-0.04,2.5,0.226s1.882,0.788,2.798,1.761c0.918,0.975,1.787,2.403,2.504,4.478
	c0.72,2.076,1.289,4.799,1.606,8.361C331.64,194.712,331.758,200.008,331.451,205.508z"/>
<path d="M499.24,167.047c-0.184-2.513-0.662-4.994-1.574-7.28c-0.912-2.285-2.257-4.371-4.171-6.095
	c-1.91-1.72-4.382-3.076-7.546-3.908c-3.15-0.826-6.979-1.13-11.605-0.754c-10.326,0.839-18.565,4.572-25.091,10.031
	c-6.447,5.393-11.248,12.494-14.737,20.196c-3.461,7.641-5.645,15.901-6.861,23.706c-1.213,7.77-1.471,15.116-1.072,20.968
	c-1.871,2.325-3.77,4.483-5.762,6.414c-1.984,1.923-4.062,3.619-6.298,5.029c-2.227,1.404-4.61,2.524-7.217,3.299
	c-2.594,0.771-5.406,1.2-8.499,1.229c-2.164,0.021-4.066-0.155-5.72-0.634c-1.649-0.478-3.053-1.259-4.222-2.447
	c-1.166-1.188-2.098-2.786-2.809-4.9c-0.709-2.113-1.198-4.747-1.474-8.009c-0.049-0.577-0.089-1.18-0.123-1.8
	c-0.034-0.621-0.062-1.261-0.086-1.912c-0.024-0.651-0.043-1.316-0.058-1.984c-0.016-0.669-0.027-1.344-0.037-2.016
	c5.303-0.501,10.457-1.997,15.195-4.322c4.777-2.348,9.126-5.535,12.759-9.39c3.661-3.884,6.587-8.434,8.486-13.464
	c1.91-5.053,2.777-10.573,2.313-16.353c-0.202-2.513-0.648-4.96-1.47-7.198c-0.821-2.237-2.016-4.261-3.708-5.93
	c-1.688-1.664-3.869-2.971-6.665-3.776c-2.783-0.802-6.171-1.105-10.272-0.772c-9.35,0.759-16.743,4.325-22.545,9.553
	c-5.735,5.167-9.941,11.979-12.944,19.349c-2.979,7.313-4.788,15.202-5.732,22.605c-0.94,7.372-1.028,14.288-0.558,19.694
	c0.461,5.301,1.507,9.803,3.069,13.574c1.563,3.779,3.647,6.836,6.182,9.235c2.542,2.408,5.545,4.16,8.938,5.314
	c3.414,1.162,7.228,1.723,11.376,1.741c4.378,0.019,8.44-0.576,12.216-1.676c3.8-1.109,7.307-2.729,10.547-4.749
	c3.26-2.03,6.248-4.465,8.996-7.189c2.762-2.739,5.277-5.768,7.578-8.969c1.015,4.015,2.487,7.439,4.367,10.322
	c1.884,2.889,4.179,5.237,6.834,7.088c2.664,1.857,5.695,3.217,9.041,4.116c3.364,0.902,7.052,1.345,11.01,1.362
	c3.991,0.016,7.875-0.398,11.501-1.398c3.65-1.007,7.037-2.604,10.01-4.946c2.989-2.355,5.555-5.462,7.542-9.472
	c1.996-4.029,3.405-8.963,4.069-14.954c-1.534,1.392-3.309,2.824-5.23,4.189c-1.916,1.363-3.979,2.658-6.098,3.782
	c-2.112,1.119-4.278,2.066-6.414,2.739c-2.127,0.671-4.223,1.068-6.201,1.091c-1.724,0.019-3.358-0.235-4.857-0.82
	c-1.497-0.588-2.858-1.505-4.035-2.82c-1.176-1.312-2.168-3.021-2.927-5.189c-0.758-2.168-1.285-4.796-1.53-7.952
	c-0.391-5.049-0.061-11.252,0.854-17.74c0.92-6.511,2.432-13.322,4.404-19.548c1.981-6.259,4.43-11.93,7.208-16.108
	c2.795-4.2,5.923-6.887,9.242-7.126c0.989-0.071,1.854,0.09,2.6,0.455c0.746,0.362,1.372,0.927,1.886,1.66
	c0.515,0.733,0.917,1.632,1.213,2.667s0.487,2.202,0.582,3.471c0.066,0.896,0.083,1.846,0.052,2.841
	c-0.032,0.995-0.113,2.032-0.244,3.1c-0.132,1.065-0.312,2.161-0.545,3.273c-0.231,1.11-0.513,2.235-0.847,3.363
	c0.604,0.395,1.217,0.733,1.838,1.018c0.62,0.284,1.248,0.514,1.879,0.689c0.631,0.176,1.266,0.3,1.902,0.371
	c0.636,0.069,1.271,0.087,1.903,0.053c1.428-0.076,2.825-0.43,4.106-1.087c1.286-0.659,2.455-1.625,3.422-2.92
	c0.969-1.299,1.732-2.929,2.205-4.916C499.257,172.121,499.439,169.774,499.24,167.047z M387.271,192.403
	c1.077-4.732,2.427-9.242,4.006-13.175c1.586-3.947,3.403-7.316,5.409-9.743c2.012-2.436,4.215-3.922,6.559-4.091
	c0.878-0.064,1.623,0.081,2.253,0.411c0.631,0.331,1.146,0.849,1.563,1.528c0.418,0.682,0.738,1.526,0.979,2.512
	c0.242,0.986,0.404,2.112,0.505,3.357c0.337,4.119-0.121,8.208-1.215,12.045c-1.093,3.826-2.815,7.392-5.012,10.487
	c-2.187,3.08-4.839,5.688-7.803,7.615c-2.947,1.917-6.2,3.16-9.608,3.529C385.396,202.061,386.198,197.12,387.271,192.403z"/>
<path d="M43.173,278.091c0.312-0.486,0.549-1.066,0.686-1.722c0.135-0.653,0.168-1.38,0.077-2.158
	c-0.04-0.332-0.101-0.658-0.195-0.964c-0.096-0.305-0.223-0.587-0.396-0.829c-0.171-0.243-0.388-0.445-0.657-0.588
	c-0.27-0.144-0.595-0.23-0.984-0.239c-0.891-0.022-1.582,0.359-2.11,0.994c-0.529,0.634-0.896,1.518-1.14,2.5
	c-0.245,0.981-0.365,2.062-0.404,3.087s0.008,1.996,0.1,2.763c0,0.01,0.001,0.018,0.002,0.026s0.003,0.018,0.004,0.027
	c0.001,0.008,0.001,0.017,0.003,0.024c0.001,0.01,0.002,0.019,0.004,0.027c-0.046,0.229-0.096,0.438-0.154,0.621
	c-0.058,0.185-0.126,0.343-0.206,0.472c-0.081,0.129-0.174,0.229-0.286,0.295c-0.11,0.065-0.239,0.097-0.389,0.092
	c-0.129-0.006-0.239-0.036-0.333-0.092c-0.094-0.055-0.173-0.133-0.238-0.231c-0.063-0.1-0.116-0.218-0.155-0.355
	c-0.04-0.136-0.069-0.29-0.089-0.458c-0.044-0.368-0.049-0.844-0.036-1.382c0.012-0.539,0.042-1.144,0.07-1.768
	c0.028-0.626,0.053-1.272,0.056-1.897c0.002-0.624-0.018-1.227-0.083-1.765c-0.062-0.527-0.167-0.979-0.306-1.36
	s-0.311-0.692-0.509-0.938c-0.199-0.246-0.423-0.427-0.667-0.548c-0.245-0.12-0.506-0.182-0.778-0.188
	c-0.138-0.002-0.287,0.009-0.441,0.047c-0.153,0.038-0.312,0.104-0.473,0.21s-0.323,0.252-0.48,0.45
	c-0.158,0.199-0.312,0.451-0.46,0.769c0.019-1.5,0.04-2.675,0.068-3.608c0.026-0.934,0.06-1.627,0.098-2.17
	c0.039-0.544,0.084-0.935,0.137-1.263c0.052-0.327,0.111-0.594,0.179-0.886c-0.105,0.117-0.229,0.214-0.369,0.294
	c-0.141,0.079-0.299,0.141-0.469,0.188c-0.168,0.046-0.352,0.077-0.544,0.097c-0.191,0.019-0.393,0.025-0.601,0.021
	c-0.433-0.008-0.893-0.061-1.351-0.133c-0.457-0.073-0.911-0.168-1.336-0.261c-0.423-0.095-0.818-0.188-1.154-0.256
	c-0.336-0.072-0.615-0.118-0.808-0.123c-1.035-0.017-1.896,0.176-2.596,0.53c-0.699,0.354-1.239,0.867-1.638,1.492
	c-0.398,0.624-0.655,1.357-0.786,2.151c-0.13,0.793-0.136,1.646-0.031,2.512c0.056,0.469,0.144,0.862,0.259,1.188
	c0.117,0.327,0.263,0.587,0.437,0.789c0.175,0.202,0.378,0.347,0.611,0.442c0.231,0.097,0.491,0.145,0.778,0.152
	c-0.013-0.06-0.039-0.118-0.07-0.192c-0.033-0.075-0.073-0.166-0.116-0.292c-0.042-0.125-0.089-0.285-0.135-0.497
	c-0.045-0.211-0.09-0.474-0.13-0.808c-0.124-1.022-0.131-1.857-0.045-2.535c0.086-0.679,0.266-1.201,0.521-1.597
	c0.254-0.396,0.582-0.665,0.961-0.84c0.381-0.175,0.814-0.255,1.281-0.27l-0.31,17.269l2.411,0.1l0.311-17.085
	c0.198,0.044,0.396,0.091,0.591,0.136c0.197,0.046,0.392,0.093,0.583,0.136c0.191,0.043,0.381,0.085,0.567,0.12
	c0.186,0.036,0.368,0.068,0.544,0.091l-0.311,16.698l2.438,0.102c-0.002-0.87-0.004-1.696-0.005-2.482
	c0-0.787,0.001-1.533,0.003-2.242c0.001-0.71,0.004-1.382,0.006-2.021c0.003-0.638,0.008-1.24,0.012-1.812
	c0.026-0.31,0.065-0.606,0.12-0.876c0.053-0.27,0.121-0.511,0.203-0.716c0.083-0.203,0.182-0.367,0.297-0.479
	s0.249-0.173,0.398-0.168c0.103,0.002,0.195,0.034,0.28,0.094c0.083,0.062,0.158,0.148,0.223,0.266
	c0.065,0.114,0.121,0.258,0.166,0.425c0.045,0.168,0.081,0.361,0.107,0.581c0.051,0.421,0.065,0.938,0.06,1.507
	c-0.004,0.567-0.025,1.186-0.046,1.807c-0.023,0.62-0.044,1.246-0.045,1.828c-0.002,0.581,0.015,1.119,0.068,1.569
	c0.045,0.378,0.122,0.752,0.236,1.103c0.114,0.353,0.266,0.682,0.457,0.965c0.192,0.284,0.425,0.521,0.704,0.693
	c0.277,0.173,0.602,0.276,0.975,0.292c0.171,0.008,0.356-0.004,0.543-0.056c0.188-0.052,0.381-0.144,0.571-0.299
	s0.377-0.373,0.552-0.675c0.177-0.303,0.341-0.69,0.489-1.187c0.141,0.411,0.31,0.764,0.501,1.062
	c0.191,0.301,0.406,0.548,0.643,0.744c0.235,0.196,0.492,0.344,0.764,0.445c0.273,0.102,0.564,0.156,0.869,0.17
	c0.345,0.015,0.676-0.028,0.979-0.146c0.303-0.119,0.577-0.314,0.807-0.605c0.231-0.292,0.419-0.68,0.55-1.185
	c0.13-0.506,0.205-1.128,0.206-1.885c-0.115,0.186-0.25,0.363-0.396,0.525c-0.146,0.164-0.306,0.312-0.47,0.434
	c-0.166,0.123-0.337,0.223-0.51,0.289c-0.172,0.066-0.344,0.102-0.511,0.095c-0.153-0.006-0.302-0.045-0.441-0.126
	c-0.14-0.083-0.27-0.208-0.387-0.383c-0.117-0.176-0.222-0.404-0.31-0.692c-0.087-0.288-0.158-0.638-0.208-1.056
	c-0.006-0.062-0.012-0.122-0.017-0.188c-0.005-0.063-0.009-0.13-0.013-0.196c-0.004-0.067-0.008-0.137-0.012-0.206
	s-0.008-0.138-0.013-0.208c0.515-0.027,1.005-0.189,1.445-0.466C42.472,278.969,42.86,278.577,43.173,278.091z M40.553,278.438
	c0.016-0.627,0.061-1.279,0.133-1.906s0.17-1.229,0.295-1.75c0.124-0.523,0.272-0.966,0.446-1.278
	c0.173-0.312,0.371-0.491,0.59-0.484c0.083,0.001,0.153,0.029,0.215,0.081c0.061,0.052,0.114,0.126,0.158,0.221
	c0.045,0.094,0.083,0.21,0.113,0.343c0.03,0.133,0.054,0.284,0.074,0.448c0.066,0.562,0.057,1.11-0.015,1.618
	c-0.073,0.506-0.208,0.972-0.395,1.369c-0.186,0.396-0.422,0.724-0.696,0.956C41.2,278.287,40.889,278.425,40.553,278.438z"/>
<path d="M56.585,276.018c-0.49-0.949-1.084-1.705-1.671-2.401c-0.586-0.694-1.165-1.331-1.626-2.043
	c-0.461-0.711-0.805-1.497-0.922-2.493c-0.048-0.406-0.048-0.763-0.005-1.067c0.042-0.306,0.126-0.56,0.247-0.764
	c0.122-0.202,0.28-0.355,0.469-0.455c0.19-0.1,0.411-0.147,0.656-0.144c0.246,0.006,0.458,0.062,0.639,0.161
	c0.182,0.099,0.332,0.238,0.456,0.406c0.124,0.17,0.219,0.368,0.292,0.585c0.072,0.216,0.121,0.45,0.149,0.689
	c0.026,0.224,0.033,0.454,0.022,0.681c-0.012,0.227-0.041,0.448-0.087,0.655c-0.047,0.208-0.11,0.401-0.189,0.569
	c-0.078,0.169-0.172,0.312-0.281,0.422c0.073,0.104,0.146,0.192,0.219,0.267c0.073,0.073,0.146,0.134,0.222,0.182
	c0.074,0.047,0.15,0.083,0.227,0.105c0.077,0.023,0.157,0.035,0.238,0.037c0.223,0.007,0.418-0.062,0.583-0.194
	c0.165-0.131,0.297-0.325,0.397-0.568c0.101-0.243,0.167-0.536,0.197-0.867c0.031-0.331,0.024-0.699-0.022-1.093
	c-0.089-0.751-0.286-1.334-0.545-1.785c-0.259-0.452-0.58-0.772-0.917-0.998c-0.336-0.226-0.688-0.358-1.009-0.436
	c-0.32-0.077-0.61-0.1-0.822-0.103c-0.575-0.011-1.106,0.107-1.573,0.334c-0.466,0.227-0.869,0.561-1.19,0.983
	c-0.319,0.424-0.557,0.936-0.693,1.519c-0.138,0.582-0.174,1.235-0.09,1.939c0.116,0.986,0.444,1.837,0.878,2.63
	c0.435,0.793,0.977,1.527,1.522,2.284c0.546,0.759,1.094,1.538,1.541,2.418s0.791,1.86,0.927,3.019
	c0.066,0.568,0.072,1.076,0.022,1.516s-0.151,0.812-0.3,1.112c-0.15,0.3-0.345,0.527-0.578,0.676
	c-0.234,0.148-0.505,0.221-0.808,0.207c-0.284-0.011-0.543-0.099-0.773-0.243s-0.432-0.348-0.603-0.592
	c-0.171-0.245-0.312-0.53-0.42-0.839c-0.107-0.31-0.182-0.642-0.222-0.979c-0.056-0.465-0.032-0.854,0.05-1.173
	c0.083-0.32,0.223-0.573,0.4-0.766s0.392-0.326,0.622-0.41c0.23-0.084,0.477-0.117,0.719-0.109
	c-0.056-0.355-0.154-0.646-0.283-0.883c-0.128-0.238-0.285-0.42-0.453-0.56c-0.17-0.14-0.351-0.234-0.53-0.296
	c-0.18-0.062-0.355-0.091-0.512-0.096c-0.311-0.01-0.619,0.074-0.9,0.251c-0.28,0.176-0.535,0.443-0.741,0.805
	c-0.205,0.36-0.361,0.813-0.444,1.356c-0.082,0.543-0.093,1.178-0.008,1.904c0.097,0.821,0.29,1.525,0.553,2.119
	c0.264,0.595,0.602,1.081,0.991,1.466c0.389,0.387,0.829,0.673,1.299,0.868c0.471,0.194,0.972,0.3,1.482,0.321
	c0.647,0.026,1.269-0.084,1.831-0.338c0.562-0.254,1.062-0.649,1.465-1.192s0.708-1.231,0.879-2.071
	c0.171-0.839,0.208-1.828,0.074-2.971C57.464,278.108,57.076,276.966,56.585,276.018z"/>
<path d="M105.59,274.121c-0.141-0.206-0.306-0.379-0.493-0.501c-0.186-0.122-0.395-0.195-0.622-0.2
	c-0.243-0.007-0.466,0.045-0.675,0.141c-0.208,0.094-0.401,0.23-0.582,0.396s-0.351,0.356-0.511,0.56
	c-0.162,0.203-0.315,0.417-0.465,0.628l0.056-1.779l-2.886-0.073l-0.133,3.8c-0.13,0.08-0.262,0.152-0.392,0.217
	c-0.131,0.063-0.263,0.118-0.392,0.163s-0.256,0.078-0.38,0.101c-0.125,0.022-0.246,0.033-0.363,0.029l-0.229-0.07
	c-0.084-0.742-0.21-1.401-0.38-1.97c-0.169-0.569-0.38-1.051-0.635-1.439c-0.255-0.39-0.553-0.687-0.893-0.889
	c-0.34-0.203-0.723-0.311-1.149-0.321c-1.014-0.025-1.808,0.38-2.424,1.051c-0.614,0.669-1.051,1.605-1.35,2.646
	c-0.297,1.039-0.459,2.181-0.522,3.268c-0.063,1.084-0.029,2.111,0.064,2.922c0.001,0.021,0.004,0.041,0.006,0.062
	c0.003,0.021,0.005,0.042,0.008,0.062c0.002,0.02,0.005,0.039,0.008,0.06c0.003,0.021,0.005,0.041,0.008,0.061
	c-0.062,0.227-0.139,0.434-0.228,0.616c-0.089,0.183-0.19,0.341-0.3,0.471c-0.112,0.129-0.234,0.229-0.363,0.295
	c-0.13,0.066-0.267,0.1-0.412,0.094c-0.136-0.005-0.255-0.024-0.36-0.064c-0.104-0.04-0.194-0.1-0.27-0.183
	c-0.076-0.083-0.137-0.189-0.186-0.323c-0.048-0.136-0.083-0.298-0.105-0.493c-0.008-0.063-0.013-0.129-0.018-0.195
	c-0.004-0.067-0.006-0.137-0.006-0.211c-0.001-0.073-0.001-0.151,0-0.234c0.001-0.082,0.002-0.17,0.006-0.264l0.275-8.42l1.169,0.03
	l0.019-1.119l-1.154-0.029l0.148-4.437l-2.809,0.491l-0.137,3.875l-0.638-0.017l-0.031,1.113l0.638,0.018l-0.255,7.867
	c-0.197,0.392-0.393,0.761-0.601,1.093c-0.207,0.332-0.426,0.627-0.667,0.871c-0.242,0.245-0.505,0.438-0.804,0.566
	c-0.297,0.129-0.629,0.192-1.005,0.178c-0.23-0.008-0.435-0.045-0.615-0.125c-0.181-0.078-0.337-0.2-0.471-0.38
	c-0.136-0.181-0.249-0.418-0.342-0.728c-0.093-0.311-0.165-0.693-0.219-1.165c-0.089-0.774-0.114-1.671-0.085-2.582
	c0.03-0.91,0.118-1.834,0.252-2.66c0.136-0.826,0.32-1.556,0.547-2.076c0.226-0.521,0.493-0.833,0.796-0.825
	c0.089,0.003,0.171,0.032,0.244,0.085c0.073,0.055,0.137,0.133,0.192,0.232c0.055,0.1,0.101,0.221,0.14,0.36
	c0.037,0.14,0.066,0.297,0.086,0.472c0.013,0.12,0.022,0.247,0.028,0.377c0.004,0.132,0.004,0.266,0,0.405
	c-0.004,0.138-0.012,0.281-0.022,0.426c-0.012,0.146-0.027,0.295-0.045,0.445c0.064,0.06,0.127,0.111,0.189,0.155
	c0.062,0.045,0.124,0.081,0.183,0.11c0.059,0.029,0.116,0.052,0.171,0.066c0.054,0.016,0.107,0.024,0.159,0.025
	c0.14,0.004,0.27-0.033,0.383-0.114s0.208-0.205,0.283-0.372c0.073-0.166,0.125-0.377,0.147-0.631
	c0.022-0.255,0.017-0.553-0.022-0.896c-0.036-0.321-0.1-0.644-0.201-0.949c-0.101-0.305-0.239-0.591-0.428-0.84
	c-0.187-0.247-0.424-0.455-0.721-0.605c-0.297-0.148-0.653-0.239-1.083-0.25c-0.937-0.023-1.675,0.349-2.249,0.972
	c-0.575,0.621-0.987,1.492-1.272,2.472c-0.286,0.978-0.446,2.062-0.516,3.11c-0.069,1.048-0.049,2.061,0.027,2.895
	c-0.178,0.34-0.359,0.658-0.551,0.942c-0.193,0.285-0.396,0.534-0.621,0.741c-0.224,0.206-0.469,0.37-0.741,0.476
	c-0.274,0.108-0.577,0.16-0.917,0.146c-0.226-0.008-0.427-0.045-0.603-0.124c-0.178-0.078-0.332-0.199-0.465-0.377
	s-0.245-0.413-0.337-0.721c-0.09-0.308-0.164-0.688-0.217-1.153c-0.011-0.084-0.02-0.17-0.028-0.26
	c-0.008-0.091-0.017-0.184-0.024-0.278c-0.008-0.094-0.015-0.191-0.021-0.288c-0.005-0.099-0.011-0.196-0.016-0.295
	c0.559-0.026,1.089-0.196,1.564-0.487c0.476-0.291,0.897-0.701,1.237-1.209c0.34-0.509,0.599-1.112,0.75-1.79
	s0.194-1.428,0.101-2.228c-0.04-0.344-0.104-0.686-0.204-1.002c-0.1-0.317-0.235-0.61-0.418-0.863
	c-0.184-0.252-0.413-0.462-0.703-0.612c-0.289-0.149-0.636-0.239-1.054-0.249c-0.968-0.024-1.72,0.373-2.298,1.031
	c-0.576,0.659-0.98,1.577-1.251,2.599c-0.271,1.02-0.411,2.141-0.458,3.207c-0.049,1.065-0.006,2.075,0.086,2.872
	c0,0.011,0.003,0.021,0.003,0.032c0.002,0.011,0.002,0.021,0.005,0.031c0.001,0.011,0.002,0.021,0.004,0.032
	c0.001,0.011,0.002,0.021,0.004,0.032c-0.057,0.23-0.13,0.442-0.214,0.629c-0.085,0.188-0.182,0.35-0.29,0.482
	s-0.225,0.236-0.351,0.305c-0.126,0.068-0.262,0.102-0.402,0.097c-0.13-0.006-0.245-0.024-0.344-0.063s-0.186-0.096-0.259-0.177
	c-0.072-0.081-0.132-0.187-0.178-0.317c-0.046-0.132-0.081-0.291-0.102-0.481c-0.008-0.062-0.014-0.126-0.018-0.191
	c-0.004-0.066-0.006-0.134-0.008-0.205c-0.003-0.072-0.003-0.147-0.001-0.229s0.003-0.168,0.005-0.26l0.406-14.82l-2.682,0.487
	l-0.378,13.723c-0.186,0.384-0.372,0.743-0.568,1.069c-0.197,0.323-0.404,0.613-0.634,0.853c-0.229,0.239-0.481,0.428-0.764,0.554
	c-0.284,0.126-0.602,0.189-0.961,0.175c-0.219-0.008-0.415-0.043-0.587-0.12c-0.172-0.079-0.323-0.197-0.453-0.373
	c-0.129-0.176-0.238-0.408-0.328-0.711s-0.161-0.678-0.215-1.139c-0.009-0.082-0.019-0.167-0.026-0.256
	c-0.009-0.088-0.018-0.18-0.025-0.272c-0.007-0.093-0.013-0.188-0.02-0.284c-0.006-0.096-0.012-0.192-0.016-0.29
	c0.542-0.026,1.056-0.195,1.518-0.481c0.461-0.287,0.87-0.692,1.198-1.193c0.33-0.501,0.581-1.097,0.726-1.765
	c0.145-0.668,0.183-1.408,0.091-2.196c-0.04-0.34-0.102-0.676-0.2-0.988c-0.099-0.312-0.23-0.602-0.409-0.851
	c-0.178-0.249-0.402-0.455-0.684-0.604c-0.282-0.147-0.619-0.235-1.024-0.244c-0.942-0.024-1.671,0.368-2.231,1.018
	c-0.558,0.649-0.949,1.555-1.209,2.562c-0.26,1.006-0.393,2.112-0.437,3.163s0,2.047,0.092,2.832c0.09,0.765,0.236,1.418,0.432,1.97
	s0.439,1.003,0.728,1.358c0.287,0.357,0.618,0.62,0.983,0.8c0.366,0.179,0.769,0.273,1.199,0.291c0.473,0.02,0.9-0.058,1.291-0.213
	c0.389-0.156,0.74-0.391,1.056-0.686c0.316-0.295,0.598-0.649,0.849-1.045c0.252-0.396,0.476-0.833,0.672-1.293
	c0.001,0.013,0.003,0.024,0.004,0.036c0.001,0.012,0.002,0.024,0.004,0.037c0.001,0.011,0.002,0.024,0.005,0.036
	c0,0.012,0.002,0.023,0.004,0.036c0.066,0.571,0.176,1.062,0.324,1.479s0.33,0.761,0.54,1.034c0.208,0.272,0.445,0.478,0.697,0.615
	c0.252,0.139,0.522,0.211,0.8,0.222c0.192,0.008,0.412-0.004,0.646-0.061c0.234-0.058,0.482-0.158,0.73-0.328
	c0.25-0.169,0.499-0.406,0.733-0.736c0.235-0.329,0.457-0.75,0.649-1.287c0.147,0.449,0.326,0.836,0.531,1.165
	c0.205,0.328,0.438,0.598,0.696,0.814c0.259,0.217,0.541,0.377,0.845,0.488c0.304,0.11,0.629,0.172,0.974,0.187
	c0.479,0.02,0.915-0.056,1.312-0.21c0.397-0.154,0.756-0.386,1.079-0.676c0.324-0.293,0.612-0.645,0.873-1.038
	c0.259-0.393,0.489-0.827,0.693-1.285c0.127,0.602,0.299,1.117,0.507,1.553c0.21,0.437,0.46,0.794,0.741,1.08
	c0.283,0.284,0.601,0.495,0.946,0.64s0.72,0.224,1.119,0.239c0.495,0.021,0.944-0.059,1.352-0.217
	c0.409-0.159,0.777-0.398,1.109-0.7c0.332-0.301,0.628-0.662,0.894-1.067s0.5-0.852,0.709-1.321
	c0.001,0.012,0.002,0.023,0.004,0.037c0.001,0.012,0.002,0.023,0.004,0.037c0.001,0.012,0.002,0.023,0.004,0.037
	c0.001,0.012,0.002,0.023,0.004,0.037c0.068,0.583,0.182,1.087,0.333,1.513c0.153,0.428,0.341,0.778,0.559,1.059
	s0.464,0.489,0.728,0.63c0.264,0.142,0.547,0.217,0.837,0.229c0.2,0.009,0.43-0.004,0.675-0.062c0.246-0.059,0.506-0.16,0.766-0.333
	c0.262-0.173,0.522-0.413,0.771-0.749c0.247-0.335,0.481-0.764,0.687-1.312c0.16,0.456,0.354,0.848,0.577,1.177
	c0.223,0.332,0.476,0.604,0.751,0.818c0.276,0.217,0.577,0.377,0.896,0.487c0.32,0.11,0.657,0.172,1.008,0.187
	c0.602,0.025,1.154-0.157,1.639-0.526c0.486-0.369,0.906-0.926,1.241-1.649c0.336-0.724,0.588-1.616,0.737-2.654
	c0.151-1.04,0.199-2.226,0.129-3.537c0.143-0.03,0.285-0.066,0.423-0.107c0.14-0.041,0.276-0.086,0.409-0.138
	c0.134-0.052,0.266-0.107,0.393-0.169c0.128-0.062,0.252-0.126,0.375-0.196l-0.317,9.059l2.873,0.118l0.369-10.799
	c0.109-0.163,0.21-0.312,0.311-0.442c0.101-0.132,0.199-0.244,0.303-0.336c0.105-0.093,0.214-0.165,0.335-0.211
	c0.122-0.048,0.255-0.07,0.406-0.066s0.242,0.125,0.311,0.304c0.069,0.18,0.117,0.417,0.179,0.655
	c0.063,0.239,0.145,0.477,0.279,0.658c0.136,0.181,0.326,0.305,0.61,0.313c0.247,0.008,0.453-0.053,0.623-0.164
	c0.17-0.112,0.302-0.275,0.4-0.469c0.099-0.195,0.162-0.424,0.195-0.666c0.032-0.241,0.032-0.499,0.004-0.753
	c-0.03-0.27-0.091-0.541-0.181-0.796C105.847,274.564,105.731,274.325,105.59,274.121z M61.243,277.119
	c0.074-0.65,0.176-1.261,0.308-1.79c0.13-0.526,0.288-0.971,0.471-1.28c0.185-0.31,0.395-0.485,0.628-0.479
	c0.089,0.003,0.166,0.031,0.232,0.084s0.124,0.129,0.17,0.226c0.048,0.099,0.086,0.216,0.118,0.353
	c0.032,0.137,0.056,0.291,0.076,0.459c0.066,0.571,0.053,1.129-0.025,1.646c-0.079,0.518-0.223,0.994-0.418,1.4
	c-0.197,0.406-0.445,0.744-0.732,0.984c-0.286,0.24-0.611,0.384-0.96,0.402C61.125,278.451,61.17,277.767,61.243,277.119z
	 M73.301,277.492c0.078-0.657,0.186-1.279,0.321-1.813c0.137-0.535,0.3-0.985,0.49-1.299c0.191-0.314,0.408-0.493,0.648-0.486
	c0.092,0.003,0.17,0.032,0.239,0.085c0.068,0.055,0.125,0.132,0.174,0.23c0.048,0.098,0.088,0.219,0.12,0.356
	c0.033,0.139,0.059,0.295,0.079,0.467c0.066,0.579,0.05,1.145-0.032,1.669c-0.082,0.523-0.232,1.007-0.436,1.419
	c-0.203,0.413-0.459,0.755-0.754,0.998c-0.296,0.244-0.629,0.389-0.988,0.407C73.176,278.844,73.224,278.149,73.301,277.492z
	 M95.905,281.38c-0.073,0.705-0.186,1.332-0.332,1.853c-0.145,0.521-0.323,0.936-0.525,1.218c-0.202,0.282-0.426,0.432-0.667,0.423
	c-0.189-0.007-0.348-0.04-0.486-0.114c-0.137-0.073-0.251-0.188-0.349-0.361c-0.097-0.173-0.178-0.403-0.247-0.708
	c-0.07-0.303-0.129-0.68-0.182-1.147c-0.08-0.696-0.098-1.538-0.062-2.411c0.037-0.874,0.13-1.777,0.276-2.593
	c0.146-0.816,0.347-1.544,0.596-2.066c0.251-0.523,0.551-0.84,0.899-0.83c0.13,0.004,0.243,0.037,0.341,0.103
	c0.098,0.064,0.183,0.163,0.258,0.299c0.076,0.134,0.139,0.307,0.195,0.52c0.057,0.213,0.106,0.467,0.151,0.766
	c-0.084,0.051-0.158,0.121-0.221,0.21c-0.063,0.088-0.117,0.195-0.155,0.321c-0.04,0.128-0.066,0.272-0.076,0.438
	c-0.011,0.164-0.007,0.348,0.017,0.55c0.016,0.14,0.037,0.273,0.068,0.399c0.031,0.128,0.07,0.246,0.121,0.353
	c0.05,0.106,0.113,0.2,0.19,0.277c0.077,0.078,0.168,0.14,0.276,0.181C96.01,279.891,95.978,280.675,95.905,281.38z"/>
<path d="M142.914,271.344c0.117,0.285,0.271,0.543,0.45,0.76c0.178,0.216,0.384,0.392,0.605,0.514
	c0.221,0.124,0.458,0.194,0.703,0.199c0.245,0.006,0.47-0.053,0.668-0.167c0.198-0.113,0.368-0.28,0.505-0.489
	c0.136-0.21,0.236-0.462,0.293-0.745c0.057-0.282,0.072-0.598,0.036-0.931c-0.036-0.334-0.12-0.652-0.239-0.944
	c-0.12-0.291-0.276-0.554-0.459-0.776c-0.182-0.222-0.391-0.403-0.615-0.529c-0.224-0.126-0.463-0.198-0.708-0.203
	c-0.245-0.004-0.468,0.06-0.663,0.178s-0.362,0.292-0.495,0.507c-0.132,0.216-0.229,0.474-0.285,0.76
	c-0.056,0.287-0.067,0.603-0.032,0.936C142.715,270.743,142.795,271.058,142.914,271.344z"/>
<path d="M166.855,276.567c-0.114-0.351-0.273-0.675-0.492-0.953c-0.218-0.279-0.494-0.513-0.845-0.679
	c-0.349-0.166-0.771-0.266-1.282-0.279c-1.178-0.029-2.103,0.407-2.822,1.133c-0.717,0.726-1.233,1.737-1.587,2.864
	c-0.356,1.123-0.553,2.361-0.638,3.538c-0.085,1.174-0.058,2.288,0.036,3.168c0.001,0.011,0.002,0.02,0.004,0.03
	s0.001,0.02,0.002,0.03c0.001,0.01,0.003,0.021,0.004,0.029c0.001,0.011,0.002,0.021,0.004,0.031
	c-0.068,0.263-0.141,0.502-0.225,0.712c-0.083,0.209-0.177,0.392-0.287,0.539c-0.11,0.147-0.236,0.26-0.385,0.335
	c-0.149,0.075-0.319,0.111-0.518,0.104c-0.17-0.007-0.313-0.043-0.436-0.106c-0.124-0.063-0.223-0.154-0.305-0.269
	c-0.083-0.113-0.146-0.25-0.194-0.408c-0.048-0.156-0.081-0.333-0.101-0.526c-0.045-0.422-0.037-0.965-0.001-1.584
	c0.035-0.617,0.096-1.31,0.154-2.025c0.058-0.716,0.115-1.457,0.139-2.174c0.025-0.717,0.019-1.408-0.048-2.024
	c-0.065-0.604-0.187-1.124-0.357-1.561c-0.169-0.438-0.387-0.796-0.639-1.077c-0.253-0.283-0.544-0.492-0.86-0.632
	c-0.318-0.139-0.66-0.209-1.021-0.219c-0.172-0.005-0.364,0.007-0.564,0.047c-0.2,0.041-0.41,0.111-0.624,0.227
	c-0.214,0.114-0.429,0.273-0.642,0.493c-0.212,0.218-0.42,0.495-0.616,0.846l0.081-1.56l-3.217-0.164L148.111,284h-0.007
	c-0.041,1-0.115,0.808-0.216,1.121s-0.229,0.631-0.377,0.861c-0.148,0.229-0.32,0.43-0.507,0.552
	c-0.186,0.121-0.391,0.193-0.605,0.185c-0.154-0.006-0.289-0.021-0.405-0.064c-0.117-0.042-0.215-0.104-0.299-0.193
	c-0.083-0.089-0.149-0.199-0.199-0.343c-0.052-0.146-0.088-0.317-0.11-0.526c-0.008-0.067-0.015-0.136-0.02-0.207
	c-0.005-0.072-0.009-0.146-0.01-0.224c-0.003-0.078-0.004-0.162-0.003-0.25c0.001-0.087,0.004-0.182,0.009-0.281l0.483-10.162
	l-3.177-0.081l-0.452,9.568c-0.081,0.646-0.188,1.188-0.319,1.653c-0.131,0.464-0.291,0.847-0.478,1.168
	c-0.188,0.321-0.404,0.582-0.652,0.801c-0.247,0.22-0.526,0.396-0.839,0.55l0.651-13.794l-3.142-0.079l-0.076,1.538l-0.017-0.157
	c-0.024-0.219-0.079-0.424-0.166-0.608c-0.089-0.186-0.21-0.351-0.368-0.489c-0.157-0.14-0.349-0.253-0.58-0.333
	c-0.231-0.079-0.5-0.126-0.808-0.134c-0.937-0.023-1.706,0.354-2.327,0.996c-0.619,0.641-1.09,1.545-1.432,2.575
	c-0.34,1.031-0.55,2.188-0.648,3.337c-0.098,1.147-0.083,2.287,0.026,3.285c0.001,0.012,0.003,0.023,0.004,0.034
	c0.001,0.012,0.002,0.022,0.004,0.034c0.001,0.011,0.002,0.023,0.004,0.033c0.001,0.011,0.002,0.023,0.004,0.033
	c-0.062,0.264-0.13,0.501-0.207,0.711c-0.077,0.21-0.165,0.391-0.269,0.538s-0.223,0.26-0.364,0.336
	c-0.14,0.074-0.303,0.11-0.492,0.104c-0.159-0.007-0.296-0.041-0.412-0.104c-0.116-0.062-0.211-0.148-0.288-0.259
	c-0.079-0.11-0.138-0.243-0.185-0.396c-0.045-0.151-0.077-0.322-0.099-0.511c-0.045-0.408-0.04-0.937-0.01-1.535
	c0.029-0.601,0.082-1.271,0.133-1.966c0.052-0.696,0.1-1.415,0.118-2.109c0.02-0.696,0.009-1.367-0.057-1.965
	c-0.064-0.587-0.184-1.091-0.346-1.514c-0.162-0.426-0.366-0.772-0.607-1.046c-0.24-0.273-0.515-0.476-0.814-0.611
	c-0.299-0.135-0.622-0.203-0.96-0.212c-0.166-0.004-0.348,0.007-0.537,0.046c-0.19,0.04-0.386,0.109-0.586,0.221
	c-0.199,0.111-0.401,0.266-0.598,0.479c-0.198,0.212-0.39,0.482-0.574,0.823l0.053-1.516l-3.014-0.075l-0.395,9.446
	c-0.144,0.455-0.356,0.855-0.612,1.198s-0.557,0.629-0.878,0.856c-0.322,0.228-0.663,0.397-1.001,0.506
	c-0.337,0.109-0.672,0.158-0.98,0.146c-0.353-0.014-0.663-0.106-0.93-0.265c-0.268-0.158-0.494-0.38-0.681-0.65
	c-0.188-0.271-0.336-0.592-0.451-0.946c-0.113-0.354-0.191-0.743-0.236-1.152c-0.074-0.668-0.063-1.391,0.031-2.106
	c0.093-0.718,0.268-1.43,0.519-2.076c0.251-0.649,0.579-1.234,0.979-1.698c0.4-0.462,0.872-0.803,1.409-0.963
	c-0.389-0.147-0.73-0.361-1.026-0.628c-0.296-0.266-0.546-0.583-0.754-0.934c-0.208-0.353-0.372-0.737-0.497-1.14
	s-0.21-0.823-0.256-1.243c-0.057-0.509-0.059-1.019-0.009-1.497c0.048-0.479,0.147-0.926,0.291-1.309
	c0.145-0.384,0.334-0.702,0.566-0.924c0.231-0.223,0.502-0.347,0.81-0.341c0.141,0.003,0.286,0.033,0.425,0.096
	c0.141,0.062,0.276,0.157,0.397,0.29c0.122,0.133,0.231,0.302,0.317,0.514c0.086,0.213,0.15,0.467,0.185,0.768
	c0.026,0.247,0.032,0.515,0.017,0.778c-0.016,0.266-0.05,0.529-0.104,0.769c-0.055,0.238-0.128,0.455-0.218,0.625
	s-0.196,0.295-0.318,0.353c0.085,0.138,0.172,0.257,0.261,0.358c0.088,0.103,0.177,0.186,0.266,0.252
	c0.09,0.066,0.179,0.114,0.268,0.149c0.087,0.031,0.175,0.05,0.262,0.052c0.211,0.005,0.405-0.07,0.572-0.214
	c0.169-0.146,0.312-0.357,0.424-0.626c0.11-0.269,0.19-0.593,0.229-0.959c0.039-0.368,0.037-0.777-0.012-1.217
	c-0.066-0.599-0.208-1.13-0.41-1.589c-0.202-0.459-0.462-0.847-0.768-1.162c-0.304-0.313-0.652-0.552-1.027-0.716
	c-0.376-0.163-0.778-0.248-1.191-0.256c-0.662-0.011-1.252,0.183-1.76,0.528c-0.507,0.344-0.934,0.838-1.266,1.428
	c-0.332,0.589-0.571,1.271-0.705,1.992c-0.136,0.723-0.167,1.484-0.084,2.23c0.036,0.327,0.096,0.65,0.18,0.969
	c0.083,0.317,0.192,0.628,0.327,0.927c0.135,0.3,0.296,0.588,0.483,0.859c0.188,0.272,0.406,0.528,0.652,0.764
	c-0.569,0.185-1.061,0.55-1.473,1.04c-0.412,0.488-0.744,1.104-0.994,1.79c-0.25,0.686-0.418,1.442-0.502,2.219
	c-0.085,0.775-0.086,1.568-0.001,2.327c0.076,0.677,0.222,1.336,0.437,1.943c0.218,0.607,0.505,1.166,0.866,1.644
	c0.36,0.478,0.794,0.873,1.303,1.157s1.093,0.457,1.755,0.484c0.483,0.021,0.961-0.038,1.424-0.172
	c0.462-0.133,0.907-0.342,1.324-0.619c0.418-0.279,0.809-0.628,1.158-1.044c0.351-0.416,0.663-0.898,0.922-1.441l-0.123,2.951
	l3.015,0.125l0.397-9.329c0.037-0.365,0.093-0.716,0.167-1.036c0.075-0.319,0.166-0.608,0.278-0.851
	c0.11-0.243,0.24-0.438,0.391-0.573c0.15-0.133,0.32-0.206,0.51-0.201c0.126,0.004,0.242,0.04,0.344,0.107
	c0.102,0.068,0.192,0.166,0.27,0.295c0.079,0.129,0.144,0.287,0.195,0.475c0.053,0.188,0.093,0.402,0.12,0.646
	c0.052,0.469,0.056,1.045,0.036,1.678c-0.019,0.631-0.061,1.317-0.104,2.008c-0.042,0.689-0.085,1.385-0.102,2.031
	c-0.018,0.646-0.011,1.246,0.045,1.747c0.046,0.418,0.133,0.835,0.266,1.227c0.133,0.393,0.311,0.758,0.542,1.073
	c0.231,0.316,0.513,0.583,0.853,0.776c0.341,0.19,0.74,0.309,1.202,0.329c0.214,0.008,0.442-0.003,0.677-0.06
	c0.237-0.058,0.479-0.16,0.717-0.332c0.241-0.173,0.479-0.415,0.704-0.754c0.226-0.337,0.441-0.77,0.636-1.324
	c0.165,0.478,0.359,0.881,0.577,1.221c0.218,0.339,0.458,0.612,0.712,0.829c0.253,0.215,0.522,0.373,0.794,0.48
	c0.274,0.106,0.553,0.162,0.829,0.173c0.283,0.012,0.543-0.02,0.782-0.088s0.457-0.175,0.655-0.311
	c0.199-0.136,0.378-0.302,0.541-0.49s0.307-0.4,0.436-0.628l-0.088,1.57c-0.387,0.149-0.786,0.336-1.165,0.568
	c-0.377,0.23-0.733,0.51-1.031,0.849c-0.299,0.337-0.541,0.733-0.689,1.2c-0.15,0.467-0.208,1.003-0.14,1.625
	c0.052,0.48,0.167,0.905,0.33,1.271c0.163,0.366,0.375,0.674,0.619,0.926c0.246,0.249,0.525,0.441,0.825,0.576
	c0.3,0.133,0.622,0.208,0.948,0.225c0.357,0.017,0.732-0.015,1.097-0.137c0.366-0.123,0.723-0.337,1.04-0.686
	s0.598-0.832,0.809-1.49c0.211-0.662,0.356-1.5,0.403-2.558l0.093-2.127c0.222-0.079,0.45-0.175,0.68-0.299
	c0.229-0.124,0.458-0.276,0.681-0.47c0.223-0.192,0.438-0.425,0.642-0.709s0.393-0.62,0.563-1.019
	c0.109,0.445,0.252,0.829,0.425,1.155c0.171,0.327,0.372,0.598,0.592,0.814c0.222,0.217,0.465,0.379,0.723,0.488
	c0.258,0.112,0.53,0.172,0.812,0.183c0.199,0.009,0.425,0,0.666-0.044c0.24-0.043,0.496-0.121,0.756-0.25s0.524-0.31,0.782-0.559
	c0.259-0.251,0.51-0.57,0.745-0.976l-0.085,1.767l3.202,0.135l0.465-9.614c0.042-0.377,0.104-0.738,0.185-1.067
	c0.081-0.33,0.181-0.627,0.3-0.877c0.12-0.25,0.259-0.452,0.418-0.59c0.161-0.138,0.341-0.211,0.543-0.206
	c0.135,0.003,0.256,0.041,0.365,0.11s0.205,0.171,0.286,0.305c0.081,0.133,0.15,0.296,0.205,0.488
	c0.054,0.192,0.094,0.414,0.122,0.665c0.052,0.484,0.052,1.078,0.028,1.729s-0.074,1.357-0.124,2.069s-0.098,1.427-0.121,2.094
	c-0.022,0.666-0.019,1.284,0.036,1.801c0.046,0.431,0.137,0.86,0.275,1.265c0.138,0.403,0.325,0.78,0.568,1.107
	c0.243,0.325,0.542,0.601,0.902,0.8c0.361,0.198,0.784,0.32,1.275,0.341c0.226,0.01,0.469-0.002,0.718-0.061
	c0.251-0.058,0.509-0.161,0.765-0.336c0.256-0.177,0.51-0.424,0.752-0.768c0.243-0.345,0.474-0.787,0.684-1.35
	c0.172,0.469,0.382,0.872,0.625,1.217c0.242,0.342,0.518,0.625,0.821,0.853c0.304,0.227,0.638,0.396,0.994,0.516
	c0.357,0.116,0.738,0.183,1.14,0.199c0.456,0.019,0.893-0.027,1.296-0.161c0.402-0.134,0.771-0.356,1.085-0.689
	c0.315-0.333,0.577-0.777,0.767-1.356s0.308-1.291,0.336-2.161c-0.164,0.212-0.349,0.416-0.551,0.603
	c-0.201,0.186-0.417,0.353-0.639,0.494c-0.223,0.139-0.452,0.252-0.679,0.327c-0.229,0.076-0.453,0.114-0.668,0.106
	c-0.203-0.008-0.397-0.054-0.579-0.148c-0.181-0.096-0.348-0.239-0.497-0.441c-0.15-0.201-0.279-0.465-0.385-0.795
	c-0.105-0.331-0.187-0.732-0.238-1.213c-0.008-0.069-0.013-0.141-0.017-0.214c-0.005-0.074-0.008-0.15-0.011-0.228
	c-0.004-0.077-0.007-0.155-0.009-0.234c-0.002-0.08-0.005-0.16-0.011-0.241c0.683-0.026,1.333-0.209,1.921-0.525
	c0.588-0.315,1.113-0.763,1.541-1.319c0.429-0.557,0.76-1.222,0.959-1.973c0.201-0.749,0.27-1.584,0.175-2.479
	C167.04,277.294,166.97,276.918,166.855,276.567z M136.651,291.494c-0.021,0.436-0.064,0.817-0.121,1.143
	c-0.059,0.326-0.134,0.598-0.219,0.812c-0.086,0.216-0.185,0.376-0.29,0.481c-0.104,0.105-0.215,0.155-0.328,0.149
	c-0.121-0.005-0.232-0.046-0.331-0.111c-0.1-0.065-0.188-0.152-0.26-0.252c-0.073-0.102-0.133-0.213-0.177-0.324
	s-0.072-0.224-0.083-0.323c-0.033-0.3,0-0.568,0.086-0.812c0.085-0.243,0.222-0.461,0.396-0.657
	c0.172-0.196,0.382-0.373,0.615-0.532c0.232-0.161,0.485-0.305,0.745-0.437L136.651,291.494z M136.967,284.058
	c-0.032,0.376-0.102,0.706-0.201,0.989c-0.097,0.284-0.222,0.521-0.361,0.709c-0.138,0.189-0.291,0.331-0.446,0.423
	c-0.155,0.093-0.311,0.137-0.457,0.13c-0.097-0.004-0.214-0.009-0.339-0.052c-0.124-0.042-0.255-0.122-0.382-0.272
	c-0.126-0.149-0.25-0.371-0.356-0.698c-0.108-0.325-0.198-0.759-0.261-1.331c-0.077-0.693-0.096-1.546-0.053-2.432
	c0.043-0.888,0.148-1.81,0.32-2.644s0.411-1.58,0.721-2.116c0.31-0.535,0.692-0.857,1.15-0.846c0.171,0.005,0.316,0.058,0.438,0.14
	c0.121,0.081,0.22,0.191,0.299,0.311c0.08,0.118,0.138,0.247,0.181,0.365s0.069,0.228,0.081,0.306L136.967,284.058z
	 M165.229,279.412c-0.113,0.582-0.308,1.115-0.567,1.57c-0.259,0.454-0.582,0.829-0.951,1.095c-0.369,0.265-0.784,0.418-1.227,0.433
	c0.042-0.719,0.124-1.468,0.24-2.186c0.116-0.721,0.266-1.41,0.446-2.009s0.392-1.107,0.628-1.464
	c0.238-0.357,0.5-0.562,0.786-0.555c0.111,0.002,0.208,0.035,0.291,0.096c0.082,0.058,0.15,0.145,0.207,0.253
	c0.056,0.109,0.101,0.242,0.138,0.395c0.036,0.153,0.062,0.326,0.083,0.516C165.373,278.201,165.343,278.831,165.229,279.412z"/>
<path d="M185.568,271.712c0.478,0.01,0.894-0.059,1.246-0.212c0.351-0.151,0.636-0.388,0.855-0.71
	c0.219-0.323,0.371-0.732,0.453-1.233c0.082-0.5,0.094-1.092,0.037-1.778c-0.154,0.087-0.332,0.169-0.53,0.243
	c-0.198,0.076-0.416,0.144-0.649,0.199c-0.232,0.056-0.479,0.102-0.738,0.13c-0.259,0.031-0.529,0.044-0.804,0.04
	c-0.592-0.011-1.096-0.064-1.563-0.142c-0.467-0.077-0.899-0.176-1.348-0.273c-0.449-0.101-0.915-0.198-1.449-0.275
	c-0.534-0.078-1.137-0.134-1.861-0.146c-1.465-0.024-2.675,0.202-3.656,0.621c-0.979,0.418-1.733,1.026-2.293,1.768
	c-0.558,0.738-0.92,1.609-1.116,2.552c-0.195,0.942-0.224,1.956-0.117,2.984c0.06,0.558,0.165,1.023,0.315,1.412
	c0.15,0.389,0.345,0.697,0.583,0.938c0.238,0.24,0.52,0.415,0.842,0.53c0.324,0.115,0.689,0.174,1.094,0.186
	c-0.016-0.07-0.049-0.141-0.092-0.229s-0.094-0.198-0.148-0.347c-0.056-0.15-0.114-0.34-0.17-0.591
	c-0.055-0.253-0.106-0.566-0.149-0.961c-0.131-1.244-0.118-2.256,0.015-3.072c0.133-0.815,0.384-1.436,0.732-1.899
	c0.347-0.465,0.788-0.77,1.299-0.959c0.513-0.187,1.094-0.256,1.721-0.244l0.286,0.007l-1.188,20.467l3.41,0.141l1.186-19.906
	c0.333,0.102,0.663,0.198,0.988,0.286c0.324,0.089,0.646,0.168,0.963,0.237c0.317,0.067,0.629,0.125,0.938,0.166
	C184.966,271.68,185.269,271.706,185.568,271.712z"/>
<path d="M207.488,274.023c0.042-0.606,0.081-1.147,0.113-1.598c0.03-0.45,0.057-0.812,0.074-1.059
	c0.018-0.248,0.027-0.384,0.027-0.384l-3.666,0.55l-0.279,4.399l-0.824-0.021l-0.074,1.266l0.825,0.021l-0.568,8.93l-0.118-0.002
	c-0.104,0.12-0.219,0.247-0.343,0.374c-0.124,0.128-0.256,0.257-0.395,0.387c-0.14,0.13-0.284,0.262-0.433,0.391
	c-0.149,0.13-0.301,0.258-0.454,0.382c0.008-0.094,0.015-0.188,0.019-0.285c0.004-0.096,0.006-0.192,0.005-0.292
	c-0.001-0.1-0.004-0.202-0.011-0.307c-0.007-0.105-0.016-0.214-0.026-0.328c-0.055-0.523-0.12-0.996-0.205-1.537
	s-0.19-1.151-0.323-1.954c-0.134-0.804-0.298-1.798-0.498-3.107c-0.201-1.31-0.44-2.935-0.727-4.997l-3.583,0.554
	c-0.109,0.77-0.226,1.539-0.356,2.312c-0.13,0.771-0.273,1.546-0.437,2.319c-0.162,0.774-0.345,1.547-0.553,2.32
	c-0.206,0.772-0.438,1.545-0.701,2.315c-0.124,0.075-0.242,0.179-0.353,0.307c-0.11,0.129-0.211,0.281-0.3,0.457
	c-0.088,0.174-0.164,0.371-0.221,0.59c-0.058,0.218-0.098,0.455-0.118,0.71c-0.215,0.316-0.438,0.608-0.673,0.869
	c-0.236,0.259-0.487,0.484-0.758,0.669c-0.272,0.185-0.564,0.328-0.886,0.421c-0.321,0.094-0.672,0.137-1.059,0.121
	c-0.29-0.011-0.547-0.053-0.774-0.144c-0.226-0.09-0.419-0.229-0.585-0.43c-0.166-0.204-0.302-0.471-0.411-0.82
	c-0.109-0.348-0.19-0.779-0.244-1.308c-0.011-0.095-0.019-0.193-0.028-0.295c-0.008-0.102-0.016-0.207-0.023-0.313
	c-0.005-0.107-0.012-0.217-0.016-0.327c-0.005-0.11-0.009-0.222-0.012-0.332c0.719-0.027,1.407-0.218,2.027-0.545
	c0.622-0.326,1.177-0.79,1.631-1.363c0.453-0.574,0.806-1.258,1.021-2.026c0.215-0.768,0.292-1.619,0.199-2.524
	c-0.042-0.391-0.113-0.777-0.232-1.137c-0.119-0.36-0.285-0.693-0.513-0.98c-0.228-0.287-0.518-0.526-0.886-0.697
	c-0.367-0.17-0.812-0.273-1.35-0.287c-1.24-0.03-2.218,0.417-2.98,1.161c-0.762,0.742-1.31,1.782-1.691,2.937
	c-0.38,1.154-0.595,2.424-0.692,3.63c-0.096,1.206-0.073,2.35,0.021,3.252c0.093,0.879,0.264,1.631,0.504,2.266
	c0.241,0.635,0.551,1.154,0.92,1.566c0.37,0.411,0.798,0.717,1.275,0.926c0.477,0.207,1.004,0.318,1.57,0.343
	c0.55,0.022,1.057-0.042,1.526-0.177c0.47-0.137,0.9-0.345,1.296-0.61c0.397-0.267,0.758-0.591,1.089-0.957
	c0.331-0.367,0.631-0.777,0.903-1.214c0.112,0.411,0.272,0.82,0.485,1.202c0.211,0.381,0.476,0.735,0.792,1.041
	c0.316,0.306,0.686,0.563,1.109,0.749c0.423,0.186,0.902,0.302,1.437,0.324c0.313,0.013,0.643-0.004,0.975-0.059
	c0.333-0.055,0.669-0.145,0.993-0.279c0.324-0.135,0.639-0.313,0.927-0.542c0.288-0.227,0.553-0.506,0.777-0.841
	c0.188-0.143,0.38-0.297,0.577-0.465c0.197-0.167,0.397-0.347,0.599-0.542c0.202-0.194,0.406-0.404,0.611-0.631
	s0.409-0.47,0.612-0.732c0.001,0.066,0.004,0.131,0.007,0.197c0.002,0.065,0.006,0.131,0.01,0.195
	c0.005,0.065,0.01,0.131,0.016,0.194c0.005,0.064,0.011,0.13,0.017,0.193c0.053,0.508,0.149,0.986,0.29,1.422
	c0.143,0.434,0.33,0.824,0.565,1.152c0.235,0.33,0.518,0.598,0.851,0.789c0.333,0.19,0.717,0.303,1.153,0.32
	c0.211,0.01,0.437-0.004,0.663-0.07c0.226-0.066,0.452-0.188,0.664-0.396c0.212-0.208,0.413-0.503,0.586-0.914
	c0.172-0.415,0.317-0.946,0.421-1.63c-0.049,0.022-0.104,0.038-0.158,0.049c-0.056,0.013-0.113,0.019-0.17,0.022
	s-0.114,0.006-0.168,0.004c-0.055,0-0.106-0.002-0.153-0.004c-0.17-0.006-0.312-0.041-0.431-0.101
	c-0.119-0.06-0.214-0.145-0.291-0.248c-0.076-0.105-0.133-0.23-0.175-0.369c-0.043-0.142-0.071-0.298-0.088-0.467
	c-0.009-0.089-0.016-0.181-0.021-0.272c-0.004-0.093-0.006-0.186-0.008-0.28c0-0.094,0.003-0.188,0.007-0.282
	c0.004-0.096,0.011-0.191,0.02-0.286l0.635-9.56l1.511,0.04l0.06-1.273l-1.513-0.037C207.4,275.306,207.446,274.631,207.488,274.023
	z M187.783,281.042c0.121-0.745,0.279-1.447,0.47-2.053c0.191-0.607,0.416-1.115,0.669-1.471c0.255-0.354,0.539-0.556,0.849-0.547
	c0.118,0.002,0.219,0.037,0.306,0.097c0.086,0.061,0.158,0.148,0.218,0.262c0.059,0.111,0.106,0.247,0.144,0.403
	c0.037,0.157,0.065,0.335,0.086,0.53c0.067,0.656,0.03,1.298-0.092,1.892s-0.331,1.141-0.606,1.607
	c-0.273,0.466-0.615,0.853-1.002,1.127c-0.388,0.273-0.822,0.438-1.285,0.457C187.581,282.574,187.664,281.787,187.783,281.042z
	 M197.727,287.738c-0.076,0.377-0.21,0.669-0.384,0.89c-0.176,0.221-0.391,0.37-0.628,0.462c-0.239,0.092-0.5,0.127-0.767,0.116
	c-0.271-0.011-0.506-0.065-0.707-0.162c-0.201-0.098-0.369-0.239-0.509-0.426c-0.139-0.187-0.25-0.418-0.334-0.697
	c-0.085-0.278-0.145-0.603-0.184-0.976c0.04,0.078,0.089,0.144,0.144,0.197c0.055,0.054,0.114,0.096,0.178,0.129
	c0.062,0.033,0.127,0.058,0.191,0.073c0.065,0.016,0.129,0.024,0.189,0.026c0.161,0.006,0.303-0.037,0.426-0.118
	c0.124-0.079,0.226-0.196,0.307-0.339c0.08-0.142,0.138-0.308,0.171-0.485c0.032-0.179,0.04-0.369,0.02-0.559
	c-0.013-0.137-0.041-0.263-0.081-0.38c-0.04-0.116-0.092-0.222-0.151-0.317c-0.06-0.096-0.13-0.179-0.206-0.252
	c-0.077-0.073-0.159-0.136-0.247-0.185c0.15-0.498,0.292-0.988,0.426-1.476c0.134-0.489,0.261-0.974,0.376-1.461
	c0.117-0.489,0.222-0.978,0.317-1.475c0.095-0.495,0.178-0.999,0.249-1.513c0.188,1.227,0.348,2.209,0.486,3.017
	s0.253,1.44,0.351,1.974c0.098,0.532,0.178,0.963,0.243,1.361c0.066,0.399,0.118,0.769,0.161,1.18
	C197.821,286.901,197.803,287.362,197.727,287.738z"/>
<path d="M227.377,281.118c-0.666-1.144-1.491-2.057-2.306-2.897c-0.815-0.839-1.623-1.608-2.256-2.466
	c-0.632-0.857-1.092-1.804-1.213-3.002c-0.049-0.489-0.033-0.917,0.041-1.283c0.075-0.368,0.208-0.674,0.392-0.917
	c0.185-0.244,0.419-0.426,0.7-0.544c0.279-0.12,0.603-0.177,0.964-0.17c0.357,0.007,0.662,0.077,0.92,0.196
	c0.258,0.118,0.47,0.287,0.641,0.491c0.171,0.203,0.301,0.444,0.396,0.704c0.094,0.261,0.153,0.542,0.182,0.83
	c0.026,0.27,0.025,0.548-0.003,0.819c-0.026,0.271-0.081,0.538-0.158,0.788c-0.079,0.248-0.18,0.48-0.302,0.683
	s-0.267,0.375-0.43,0.505c0.101,0.125,0.203,0.231,0.305,0.321c0.103,0.089,0.206,0.162,0.312,0.221
	c0.106,0.057,0.214,0.1,0.325,0.129c0.11,0.029,0.225,0.044,0.341,0.046c0.324,0.009,0.61-0.074,0.855-0.23
	c0.246-0.157,0.449-0.39,0.606-0.682s0.268-0.645,0.328-1.041c0.059-0.398,0.068-0.843,0.02-1.315
	c-0.09-0.904-0.348-1.607-0.703-2.151c-0.353-0.545-0.804-0.932-1.28-1.205c-0.477-0.273-0.98-0.435-1.442-0.528
	c-0.459-0.095-0.879-0.121-1.186-0.126c-0.84-0.015-1.618,0.124-2.307,0.395c-0.689,0.27-1.29,0.669-1.776,1.177
	c-0.485,0.507-0.854,1.121-1.082,1.82s-0.311,1.482-0.226,2.329c0.121,1.186,0.554,2.21,1.146,3.163
	c0.591,0.955,1.343,1.843,2.098,2.757c0.754,0.913,1.513,1.854,2.118,2.915c0.606,1.062,1.058,2.242,1.198,3.636
	c0.069,0.683,0.05,1.292-0.044,1.819s-0.263,0.974-0.494,1.332c-0.232,0.359-0.526,0.63-0.87,0.807
	c-0.346,0.177-0.739,0.261-1.17,0.243c-0.412-0.018-0.782-0.124-1.108-0.301c-0.325-0.176-0.607-0.423-0.843-0.718
	c-0.235-0.295-0.425-0.638-0.566-1.01c-0.141-0.372-0.232-0.771-0.273-1.178c-0.056-0.56-0.003-1.024,0.131-1.408
	c0.134-0.383,0.35-0.685,0.615-0.914c0.266-0.231,0.582-0.39,0.919-0.489c0.339-0.098,0.697-0.137,1.047-0.124
	c-0.062-0.427-0.194-0.777-0.37-1.062c-0.175-0.286-0.395-0.508-0.633-0.677c-0.239-0.167-0.498-0.284-0.753-0.358
	c-0.253-0.076-0.504-0.111-0.726-0.118c-0.449-0.014-0.899,0.084-1.315,0.294c-0.414,0.209-0.797,0.529-1.111,0.961
	c-0.313,0.431-0.561,0.973-0.707,1.623c-0.146,0.651-0.191,1.414-0.104,2.285c0.101,0.986,0.341,1.833,0.693,2.547
	c0.351,0.717,0.813,1.302,1.352,1.77c0.542,0.467,1.163,0.814,1.831,1.054c0.671,0.239,1.389,0.369,2.125,0.399
	c0.94,0.04,1.852-0.088,2.679-0.385c0.83-0.299,1.577-0.771,2.189-1.419s1.09-1.473,1.38-2.479c0.291-1.009,0.394-2.197,0.255-3.57
	C228.548,283.641,228.042,282.265,227.377,281.118z"/>
<path d="M245.356,274.432c0.218,0.24,0.469,0.436,0.741,0.572c0.272,0.137,0.564,0.217,0.866,0.224
	c0.296,0.007,0.573-0.059,0.82-0.184c0.246-0.125,0.461-0.31,0.635-0.542s0.307-0.513,0.386-0.826
	c0.08-0.314,0.108-0.663,0.071-1.033c-0.036-0.371-0.133-0.726-0.275-1.05c-0.143-0.322-0.331-0.614-0.553-0.861
	s-0.476-0.449-0.748-0.59c-0.272-0.141-0.563-0.222-0.859-0.228c-0.301-0.005-0.579,0.064-0.825,0.195
	c-0.246,0.132-0.459,0.324-0.629,0.562c-0.171,0.238-0.3,0.524-0.377,0.843c-0.077,0.317-0.102,0.668-0.065,1.037
	c0.036,0.368,0.13,0.719,0.27,1.036C244.952,273.905,245.138,274.191,245.356,274.432z"/>
<path d="M267.531,279.285c-0.133-0.39-0.32-0.749-0.582-1.058c-0.261-0.31-0.597-0.568-1.022-0.753
	c-0.427-0.185-0.946-0.296-1.574-0.312c-1.44-0.035-2.581,0.444-3.477,1.244c-0.893,0.798-1.542,1.915-2,3.158
	c-0.458,1.24-0.727,2.605-0.855,3.905c-0.13,1.297-0.122,2.527-0.026,3.498c0.001,0.018,0.003,0.035,0.005,0.051
	c0.002,0.018,0.003,0.034,0.006,0.051c0.001,0.017,0.004,0.033,0.005,0.05c0.003,0.017,0.004,0.033,0.007,0.051
	c-0.1,0.274-0.219,0.526-0.354,0.746c-0.136,0.222-0.287,0.415-0.453,0.571c-0.165,0.155-0.344,0.276-0.534,0.356
	c-0.19,0.079-0.391,0.119-0.598,0.111c-0.192-0.008-0.361-0.033-0.508-0.081c-0.146-0.048-0.271-0.119-0.375-0.219
	c-0.104-0.099-0.188-0.227-0.25-0.387c-0.062-0.161-0.104-0.354-0.127-0.587c-0.007-0.076-0.012-0.153-0.015-0.232
	c-0.002-0.081-0.002-0.164-0.001-0.252c0.001-0.087,0.005-0.179,0.011-0.278c0.007-0.099,0.013-0.202,0.024-0.314l0.777-10.023
	l1.664,0.044l0.099-1.335l-1.666-0.042l0.418-5.285l-4.02,0.572l-0.371,4.613l-0.907-0.023l-0.095,1.326l0.903,0.023l-0.72,9.361
	c-0.062,0.416-0.162,0.804-0.295,1.152c-0.131,0.347-0.295,0.653-0.485,0.905c-0.19,0.254-0.405,0.453-0.639,0.587
	c-0.234,0.135-0.488,0.202-0.753,0.193c-0.19-0.009-0.356-0.033-0.5-0.081c-0.145-0.048-0.269-0.118-0.371-0.218
	c-0.103-0.099-0.185-0.225-0.246-0.385c-0.062-0.16-0.104-0.353-0.126-0.583c-0.008-0.075-0.012-0.152-0.015-0.23
	c-0.002-0.08-0.004-0.162-0.002-0.25c0.002-0.086,0.005-0.178,0.012-0.276c0.005-0.097,0.013-0.2,0.022-0.312l0.845-11.275
	l-3.917-0.1l-0.791,10.613c-0.061,0.413-0.144,0.8-0.25,1.145c-0.108,0.347-0.239,0.652-0.395,0.904
	c-0.157,0.253-0.339,0.452-0.546,0.586c-0.208,0.135-0.442,0.202-0.706,0.191c-0.186-0.007-0.351-0.03-0.493-0.078
	c-0.144-0.048-0.266-0.118-0.367-0.215c-0.101-0.099-0.182-0.225-0.243-0.383c-0.061-0.158-0.102-0.35-0.125-0.579
	c-0.008-0.074-0.014-0.15-0.016-0.229s-0.004-0.161-0.001-0.247c0.001-0.087,0.004-0.177,0.011-0.274
	c0.005-0.097,0.012-0.2,0.021-0.311l0.821-11.201l-3.865-0.097l-0.767,10.542c-0.06,0.41-0.139,0.793-0.242,1.137
	c-0.104,0.345-0.229,0.647-0.381,0.898c-0.151,0.251-0.328,0.45-0.531,0.583c-0.203,0.133-0.433,0.2-0.692,0.189
	c-0.144-0.005-0.27-0.046-0.377-0.118c-0.108-0.07-0.199-0.17-0.275-0.292c-0.074-0.123-0.134-0.269-0.179-0.428
	c-0.046-0.16-0.077-0.336-0.096-0.521c-0.006-0.074,0.014-0.148,0.011-0.223c-0.004-0.075,0.021-0.15,0.021-0.228s0-0.155,0-0.235
	c0-0.081-0.022-0.163-0.021-0.248l0.783-11.128l-3.822-0.097l-0.726,10.476c-0.016,0.195-0.029,0.387-0.037,0.572
	s-0.014,0.368-0.014,0.546c-0.001,0.177,0.002,0.35,0.01,0.518c0.006,0.169,0.018,0.334,0.034,0.493
	c0.068,0.68,0.205,1.268,0.395,1.767c0.191,0.499,0.436,0.91,0.721,1.238c0.287,0.328,0.614,0.573,0.968,0.739
	c0.355,0.168,0.737,0.258,1.135,0.273c0.277,0.013,0.575-0.002,0.88-0.07c0.307-0.067,0.623-0.191,0.938-0.396
	c0.316-0.206,0.629-0.497,0.931-0.899c0.303-0.404,0.593-0.922,0.861-1.581c0.092,0.515,0.226,0.969,0.4,1.361
	c0.175,0.394,0.391,0.726,0.642,0.995c0.251,0.271,0.538,0.479,0.858,0.623c0.32,0.145,0.672,0.226,1.053,0.242
	c0.272,0.012,0.575-0.002,0.896-0.065c0.321-0.062,0.659-0.177,0.999-0.368c0.339-0.191,0.682-0.459,1.01-0.833
	c0.329-0.373,0.646-0.85,0.935-1.459c0.122,0.506,0.29,0.942,0.495,1.316c0.206,0.371,0.448,0.68,0.72,0.927
	c0.271,0.247,0.571,0.433,0.891,0.559c0.32,0.128,0.66,0.198,1.011,0.213c0.278,0.011,0.597-0.001,0.938-0.065
	s0.705-0.181,1.074-0.374c0.368-0.195,0.741-0.471,1.1-0.852c0.358-0.381,0.704-0.87,1.015-1.494
	c0.121,0.518,0.29,0.967,0.498,1.348c0.207,0.383,0.454,0.698,0.73,0.951s0.583,0.442,0.91,0.574
	c0.327,0.13,0.675,0.202,1.034,0.217c0.284,0.012,0.611-0.002,0.961-0.068c0.35-0.066,0.724-0.186,1.103-0.388
	c0.378-0.2,0.761-0.484,1.129-0.881c0.366-0.395,0.72-0.9,1.036-1.546c0.194,0.545,0.438,1.014,0.725,1.413
	c0.288,0.398,0.619,0.729,0.988,0.991c0.369,0.265,0.775,0.462,1.217,0.601c0.441,0.137,0.915,0.214,1.416,0.234
	c0.562,0.023,1.103-0.024,1.602-0.171c0.5-0.146,0.956-0.39,1.351-0.756s0.726-0.855,0.972-1.494
	c0.247-0.638,0.407-1.425,0.462-2.387c-0.203,0.233-0.436,0.458-0.687,0.663c-0.251,0.204-0.52,0.388-0.797,0.541
	c-0.278,0.154-0.562,0.278-0.845,0.36c-0.283,0.082-0.564,0.124-0.833,0.113c-0.242-0.01-0.475-0.062-0.69-0.166
	c-0.217-0.106-0.417-0.265-0.593-0.489c-0.177-0.225-0.329-0.514-0.45-0.881c-0.121-0.366-0.211-0.81-0.263-1.341
	c-0.007-0.076-0.014-0.156-0.019-0.236c-0.006-0.081-0.011-0.165-0.015-0.25c-0.006-0.087-0.009-0.173-0.013-0.261
	s-0.006-0.177-0.009-0.266c0.834-0.026,1.637-0.227,2.364-0.572c0.729-0.346,1.384-0.838,1.923-1.452
	c0.54-0.613,0.962-1.347,1.227-2.175c0.266-0.828,0.37-1.751,0.274-2.739C267.74,280.089,267.664,279.673,267.531,279.285z
	 M265.457,282.423c-0.149,0.641-0.398,1.23-0.724,1.731c-0.324,0.502-0.725,0.915-1.182,1.206c-0.456,0.291-0.966,0.46-1.509,0.473
	c0.07-0.793,0.186-1.619,0.342-2.413c0.158-0.794,0.356-1.556,0.59-2.217c0.234-0.661,0.504-1.222,0.803-1.615
	c0.3-0.395,0.63-0.62,0.982-0.611c0.133,0.004,0.245,0.04,0.342,0.106c0.096,0.065,0.175,0.161,0.241,0.282
	c0.065,0.119,0.117,0.267,0.158,0.436c0.04,0.168,0.069,0.359,0.089,0.569C265.659,281.084,265.607,281.779,265.457,282.423z"/>
</svg>
