<?xml version="1.0" encoding="utf-8"?>
<!-- Generator: Adobe Illustrator 15.0.1, SVG Export Plug-In . SVG Version: 6.00 Build 0)  -->
<!DOCTYPE svg PUBLIC "-//W3C//DTD SVG 1.1//EN" "http://www.w3.org/Graphics/SVG/1.1/DTD/svg11.dtd">
<svg version="1.1" id="Slick.js_Logo" xmlns="http://www.w3.org/2000/svg" xmlns:xlink="http://www.w3.org/1999/xlink" x="0px"
	 y="0px" height="512" width="512" viewBox="0 0 512 512" preserveAspectRatio="xMidYMid meet" xml:space="preserve">
<style type="text/css">
<![CDATA[
	.st0{fill:#FFFFFF;}
	.st1{fill:#000000;}
]]>
</style>
<g id="js">
	<path class="st1" d="M464.257,110.809v3.658h-3.729v-3.658H464.257z"/>
	<path class="st1" d="M465.991,115.987c0.348,0,0.653-0.068,0.914-0.202c0.262-0.135,0.393-0.432,0.393-0.891v-12.709h3.373v12.875
		c0,0.633-0.067,1.18-0.202,1.639s-0.364,0.843-0.688,1.152c-0.325,0.309-0.765,0.538-1.318,0.689
		c-0.555,0.15-1.259,0.226-2.114,0.226c-0.396,0-0.752-0.032-1.069-0.095v-2.779C465.453,115.955,465.69,115.987,465.991,115.987z
		 M467.298,100.285v-2.779h3.373v2.779H467.298z"/>
	<path class="st1" d="M476.432,111.414c0.149,0.261,0.344,0.475,0.582,0.642c0.237,0.166,0.511,0.289,0.819,0.368
		c0.309,0.08,0.629,0.119,0.962,0.119c0.237,0,0.487-0.027,0.748-0.083c0.262-0.055,0.499-0.143,0.713-0.261
		c0.214-0.119,0.392-0.277,0.534-0.475c0.143-0.198,0.214-0.447,0.214-0.749c0-0.506-0.336-0.887-1.01-1.14
		c-0.673-0.253-1.611-0.507-2.814-0.76c-0.491-0.11-0.971-0.241-1.438-0.392c-0.467-0.15-0.883-0.348-1.247-0.594
		c-0.364-0.245-0.657-0.554-0.879-0.926s-0.333-0.828-0.333-1.366c0-0.792,0.154-1.441,0.464-1.948
		c0.309-0.507,0.716-0.907,1.223-1.2s1.077-0.499,1.711-0.618c0.633-0.119,1.283-0.178,1.948-0.178s1.31,0.063,1.936,0.19
		c0.626,0.127,1.184,0.341,1.675,0.642s0.898,0.701,1.224,1.2c0.324,0.499,0.519,1.128,0.582,1.888h-3.207
		c-0.048-0.649-0.293-1.088-0.736-1.318c-0.443-0.229-0.966-0.344-1.568-0.344c-0.189,0-0.396,0.012-0.617,0.036
		c-0.222,0.023-0.424,0.075-0.605,0.154c-0.183,0.08-0.337,0.194-0.464,0.344c-0.127,0.151-0.189,0.353-0.189,0.606
		c0,0.301,0.11,0.546,0.332,0.736c0.222,0.19,0.511,0.345,0.867,0.463s0.764,0.226,1.224,0.321c0.459,0.095,0.927,0.198,1.401,0.309
		c0.491,0.111,0.97,0.246,1.438,0.404c0.467,0.159,0.883,0.368,1.247,0.63c0.364,0.261,0.657,0.586,0.879,0.974
		c0.222,0.389,0.333,0.867,0.333,1.438c0,0.808-0.163,1.485-0.487,2.031c-0.325,0.546-0.748,0.986-1.271,1.318
		c-0.522,0.333-1.12,0.566-1.793,0.701c-0.674,0.134-1.358,0.202-2.055,0.202c-0.713,0-1.41-0.071-2.091-0.213
		c-0.682-0.143-1.287-0.38-1.817-0.713s-0.966-0.772-1.307-1.318s-0.526-1.231-0.559-2.055h3.207
		C476.205,110.84,476.28,111.153,476.432,111.414z"/>
</g>
<g id="Slick">
	<path class="st1" d="M122.708,64.528c-29.246-0.476-52.647,16.152-53.031,39.73c-0.541,33.327,45.71,47.913,45.08,86.681
		c-0.31,19.044-11.6,29.972-26.79,29.725c-14.51-0.236-21.595-10.783-21.41-22.119c0.254-15.643,14.629-21.079,26.872-20.879
		c-0.488-11.801-11.772-15.159-19.708-15.288c-15.869-0.258-33.533,12.155-33.932,36.64c-0.449,27.66,21.584,39.356,47.43,39.777
		c32.874,0.535,64.01-17.555,64.629-55.644c0.797-48.971-50.141-54.334-49.599-87.662c0.221-13.603,8.724-20.495,21.192-20.292
		c12.47,0.203,16.659,7.528,16.53,15.463c-0.122,7.481-4.338,15.804-10.52,19.332c2.893,3.448,6.271,4.864,10.352,4.93
		c11.336,0.185,18.749-9.446,18.963-22.596C159.172,67.388,133.363,64.702,122.708,64.528z"/>
	<path class="st1" d="M262.769,111.253c9.976,0.162,18.267-7.64,18.429-17.615c0.162-9.976-7.866-18.27-17.842-18.432
		c-9.977-0.162-18.044,7.87-18.207,17.846C244.986,103.027,252.793,111.091,262.769,111.253z"/>
	<path class="st1" d="M469.179,219.606c-7.027-0.114-8.778-3.998-8.704-8.532c0.04-2.494,0.762-4.977,1.251-7.236l2.678-11.295
		c0.729-2.936,1.003-5.88,1.047-8.601c0.236-14.51-7.73-26.658-24.508-26.931c-2.493-0.041-4.994,0.373-7.496,0.786l45.855-30.776
		l-22.444-0.365l-44.316,33.75l18.302-79.527l-33.628,3.989l-26.067,113.191l-0.033,0c-11.546,12.738-22.59,22.537-40.501,22.246
		c-10.882-0.177-16.266-3.893-16.015-19.31c0.409-25.165,15.82-66.415,30.104-66.183c4.308,0.07,6.289,3.731,6.197,9.398
		c-0.062,3.854-1.044,8.374-2.939,13.332c2.692,1.858,5.397,2.809,7.892,2.85c6.574,0.107,12.104-5.246,12.284-16.355
		c0.17-10.429-4.647-20.939-24.825-21.267c-46.023-0.748-61.871,53.42-62.299,79.72c-0.007,0.396,0.001,0.777,0.001,1.166
		c-4.258,7.592-10.803,12.718-17.685,12.606c-6.348-0.103-9.261-2.191-9.158-8.539c0.033-2.041,0.297-4.304,1.023-7.24
		l17.578-76.818l-32.647-0.531l-16.6,72.525c-0.001,0.005-0.002,0.01-0.003,0.015c-3.589,11.273-11.887,19.748-20.724,19.604
		c-6.349-0.104-9.262-2.192-9.159-8.54c0.033-2.041,0.297-4.304,1.024-7.24l28.062-122.002L189.1,81.482l-26.105,113.19
		c-1.223,5.422-1.984,10.399-2.055,14.707c-0.31,19.044,10.214,27.379,23.817,27.6c9.271,0.151,24.44-2.478,37.131-19.718
		c2.071,14.176,11.569,20.51,23.4,20.702c9.379,0.152,24.791-2.543,37.569-20.327c4.416,14.76,16.451,21.205,32.937,21.473
		c22.618,0.368,39.307-11.228,51.832-25.76l-5.792,25.149l32.647,0.531l12.7-55.808c6.432-5.111,11.697-8.2,16.913-8.115
		c5.894,0.096,8.092,4.44,7.984,11.015c-0.04,2.494-0.314,5.437-1.042,8.373l-1.959,8.813c-0.977,4.292-1.493,8.14-1.552,11.767
		c-0.27,16.55,9.556,26.007,28.146,26.31c5.895,0.096,20.069-6.931,21.464-23.008C475.539,219.03,474.621,219.695,469.179,219.606z"
		/>
</g>
<path id="o" class="st1" d="M507.759,329.51l-2.429-46.952l-0.011-0.207c-0.006-0.111-0.02-0.224-0.042-0.337l-5.505-29.035
	l-5.458-29.033l-0.027-0.144c-0.126-0.653-0.512-1.252-1.118-1.632l-8.28-5.175l-0.115-0.072c-0.627-0.385-1.43-0.459-2.148-0.125
	l-15.874,7.4c-0.063,0.03-0.134,0.068-0.194,0.107l-0.249,0.161c-2.654,1.72-5.289,3.467-7.919,5.218l-2.425-1.243
	c-0.457-0.234-0.991-0.329-1.537-0.237l-0.632,0.107c-4.123,0.696-8.241,1.412-12.352,2.157l-12.331,2.236
	c-0.47,0.086-0.945,0.274-1.363,0.565l-0.721,0.5l-11.545,8.021c-1.146,0.802-1.998,2.054-2.25,3.542l-0.168,0.987l-0.401,2.358
	c-6.302-3.191-12.605-6.381-18.93-9.52l-1.053-0.374l-11.457-4.132l-11.474-4.076l-1.106-0.262
	c-7.93-1.922-15.856-3.853-23.798-5.71l-12.545-2.41l-12.022-2.26l-6.013-1.112l-3.007-0.556l-2.682-0.563l-5.986-1.248
	l-2.994-0.624l-1.496-0.312l-0.748-0.156l-0.094-0.02l-0.047-0.01l-0.023-0.004c0.136,0.023-0.337-0.059,0.299,0.05l-0.187-0.043
	l-0.372-0.085l-23.855-5.386c-0.344-0.075-0.736-0.136-1.098-0.162l-1.316-0.091c-6.613-0.462-13.229-0.883-19.845-1.283
	c-0.447-0.024-0.953-0.021-1.412,0.021l-1.119,0.104l-13.554,1.25l-6.777,0.625l-0.847,0.078l-1.697,0.241l-1.684,0.241
	l-3.367,0.493l-13.46,2.006l-6.73,1.002l-6.549,0.915l-13.476,1.89l-13.328,1.806l-26.962,3.682
	c-2.367,0.334-4.79,1.168-6.945,2.521l-0.63,0.396l-1.672,1.05l-13.842,3.007L99.901,233.4c-0.482,0.108-0.987,0.245-1.466,0.401
	l-0.331,0.108l-30.041,9.833l-15.127,4.909l-15.103,4.988l-0.379,0.124c-0.665,0.225-1.322,0.493-1.97,0.805l-15.491,7.462
	l-0.41,0.195c-3.503,1.684-6.527,4.449-8.517,8.13L4.6,282.316l-0.319,0.588c-2.725,5.115-3.101,11.403-0.473,17.065l3.958,8.526
	l0.273,0.592c1.564,3.377,4.159,6.315,7.641,8.293l9.703,5.512l0.693,0.398c1.333,0.747,2.79,1.324,4.35,1.694l7.489,1.777
	l0.85,0.205c2.501,0.584,5.172,0.62,7.844,0.006l35.553-8.166l15.766-3.262c0.04,1.279,0.234,2.573,0.618,3.857l2.249,7.522
	l0.174,0.591c0.267,0.874,0.63,1.734,1.09,2.566l4.529,8.181l0.263,0.478c1.569,2.832,4.066,5.177,7.285,6.523l11.697,4.897
	l0.503,0.215c1.629,0.676,3.412,1.059,5.283,1.081l8.465,0.104l1.411,3.08l0.214,0.474c0.981,2.122,2.503,4.029,4.531,5.498
	l9.613,6.963c-0.025,0.262-0.062,0.52-0.073,0.785l-0.281,7.116l-0.023,0.505c-0.061,1.744,0.221,3.528,0.889,5.26l3.575,9.265
	l0.176,0.465c0.738,1.892,1.921,3.643,3.54,5.089l10.361,9.254l9.498,10.221l-0.994,7.593l-0.059,0.452
	c-0.435,3.422,0.483,7.009,2.84,9.887l23.009,28.094l0.284,0.346c1.771,2.16,4.286,3.731,7.248,4.281l31.929,5.939l0.501,0.094
	c0.681,0.123,1.385,0.177,2.105,0.156l28.646-0.833l0.495-0.013c0.46-0.017,0.925-0.068,1.391-0.157l41.771-8.034l10.329-2.146
	l5.188-1.062l2.593-0.531l1.243-0.268l0.641-0.17l1.279-0.339l20.473-5.428l0.408-0.107c0.257-0.07,0.513-0.155,0.766-0.257
	l14.754-5.882l0.359-0.144c0.104-0.042,0.208-0.088,0.311-0.138l21.012-10.239l5.25-2.567l0.656-0.32l0.578-0.283l0.323-0.17
	l1.293-0.681l2.586-1.361l4.284-2.255l8.31,9.345l0.257,0.291c0.95,1.062,2.197,1.881,3.663,2.315l6.854,2.028l0.344,0.103
	c1.697,0.501,3.572,0.441,5.329-0.301l5.415-2.285l0.342-0.142c0.843-0.358,1.632-0.881,2.32-1.565l2.152-2.14l13.164-0.193
	l0.358-0.005c0.309-0.006,0.621-0.037,0.935-0.095l19.587-3.575l0.311-0.057c1.538-0.281,2.991-1.078,4.078-2.367l8.696-10.312
	l0.216-0.254c0.629-0.752,1.097-1.658,1.336-2.678l9.147-38.934l0.07-0.295c0.105-0.457,0.15-0.938,0.127-1.43L507.759,329.51z"/>
<polygon id="bg" class="st0" points="493.765,415.325 484.857,425.452 465.205,428.619 448.572,428.517 444.11,432.772 
	438.65,434.944 431.841,432.773 419.046,417.768 404.289,425.147 376.851,437.86 361.991,443.467 339.38,449.013 328.591,451.012 
	319.412,452.748 278.901,459.742 250.249,460.04 218.439,453.52 195.863,425.082 197.936,410.928 183.845,395.292 173.304,385.584 
	169.871,376.266 170.262,369.156 174.354,361.353 165.081,355.987 155.217,348.61 149.89,336.491 132.044,336.001 120.432,330.908 
	116.045,322.651 113.926,315.092 116.876,306.173 133.004,298.856 146.389,291.575 126.393,293.293 115.183,294.088 77.817,300.879 
	42.718,308.125 35.266,306.204 25.666,300.52 21.839,291.934 28.463,280.06 44.024,272.75 79.873,261.136 104.465,252.899 
	138.103,245.027 142.904,241.896 182.86,235.554 201.707,232.399 229.089,227.516 250.364,224.812 270.229,225.356 294.829,229.874 
	308.743,232.111 341.899,236.677 366.66,241.192 390.002,247.988 411.107,256.911 418.573,258.767 419.693,246.948 430.552,238.086 
	454.684,231.632 458.579,233.195 467.524,225.973 483.576,218.979 491.721,224.361 493.834,237.572 501.212,282.679 
	502.387,322.702 503.748,376.606 "/>
<g id="hand">
	<path class="st1" d="M148.991,253.649c1.884,2.146,2.028-2.694,1.671-4.396c-0.901,0.293-1.444,0.08-1.73-0.511
		C146.178,249.98,151.388,252.927,148.991,253.649z"/>
	<path class="st1" d="M69.136,269.625c1.587-0.284,3.174-0.572,4.76-0.858C73.085,266.314,69.094,266.532,69.136,269.625z"/>
	<path class="st1" d="M276.889,231.503c1.558,3.419,6.068,2.589,10.235,2.258C284.694,231.597,281.199,230.968,276.889,231.503z"/>
	<path class="st1" d="M294.185,236.589c0.288,3.911,4.401,2.33,6.408,3.767c17.535,8.732,31.254,22.948,45.778,36.009
		C332.381,258.215,317.055,241.977,294.185,236.589z"/>
	<path class="st1" d="M261.547,255.557c7.204,5.281,14.112,10.99,22.321,14.83C277.945,263.265,271.142,257.401,261.547,255.557z"/>
	<path class="st1" d="M485.517,221.082c-0.188-1.061-0.38-2.12-0.569-3.178c-12.358,0.703-24.391,7.541-28.158,16.524
		c0.715,0.636,1.66,0.941,2.668,1.16C464.384,227.284,477.655,221.557,485.517,221.082z"/>
	<path class="st1" d="M272.19,269.206c0.076-5.779-9.233-6.687-11.944-11.78c-3.986-0.961-7.277,5.848-2.463,4.537
		c-0.169,1.039-0.721,1.813-2.095,2.017c1.057,2.141,2.513,3.705,4.822,4.049c-2.353-2.937,5.269,1.223,6.268,2.967
		c0.317-3.145-4.604-7.332-8.06-8.384C262.06,258.965,268.351,267.053,272.19,269.206z"/>
	<path class="st1" d="M492.066,225.636c-0.115-0.509,0.938-1.711-0.424-2.38c-1.857,9.567,4.501,24.988,5.474,35.055
		C501.29,250.433,494.252,235.166,492.066,225.636z"/>
	<path class="st1" d="M477.195,234.039c-0.155-1.441-1.271-1.499-1.363-3.032c-4.719,3.665-13.562,4.456-16.317,9.485
		c2.659-0.003,3.593-1.204,5.412-1.792c-1.351,6.7-9.25,8.839-9.337,16.417c3.554,0.613,9.013-2.812,12.27-4.658
		c0.079,3.537-7.873,7.481-9.26,12.307c1.079,3.209,6.645,1.511,9.015,0.022c1.015,4.873-4.275,5.359-3.988,9.727
		c3.444-2.93,8.218-4.934,7.019-11.089c-3.015,0.155-3.736,0.059-8.076,0.633c1.533-6.868,13.023-10.31,11.719-16.848
		c-4.18,2.876-9.911,4.678-14.221,7.465C460.575,245.62,468.747,237.889,477.195,234.039z"/>
	<path class="st1" d="M181.06,295.397c-4.241,2.726,2.718,4.957,3.664,6.714C186.777,299.093,181.347,298.362,181.06,295.397z"/>
	<path class="st1" d="M251.479,308.963c12.882-2.844,19.754-9.868,23.621-18.986c-4.981,4.989-9.991,9.651-15.238,10.93
		c-1.225-3.412,3.015-9,5.143-12.391c-3.342-2.968-10.192,5.889-7.3,9.502c-0.853,2.45-3.607-3.774-5.045-0.733
		c0.394,3.429,3.516,2.933,4.965,4.842c-4.362,3.911-5.645-5.178-9.872-4.781c0.931,3.989,3.939,4.99,5.536,8.015
		c-4.464,2.508-5.272-8.211-10.437-7.953C245.48,301.613,247.913,306.103,251.479,308.963z"/>
	<path class="st1" d="M485.459,248.119c-4.168,7.755-4.791,21.662-6.264,28.971c3.682-2.296,2.566-7.935,4.493-11.453
		c1.815,1.021,3.179,1.722,3.968-0.714c0.372-2.529-2.019-1.088-3.461-1.018C485.229,259.068,487.872,255.354,485.459,248.119z"/>
	<path class="st1" d="M491.299,248.709c-2.927,15.556-6.83,30.433-11.639,44.681C485.35,279.756,493.483,267.817,491.299,248.709z"
		/>
	<path class="st1" d="M283.382,295.048c-3.539-1.053-5.518,4.937-8.666,6.47c0.492-2.679,5.416-8.261,7.669-12.024
		c-4.811-1.694-8.598,8.639-10.701,13.387c-4.177,1.493-5.94,4.665-9.461,6.613C270.487,310.923,280.054,301.638,283.382,295.048z"
		/>
	<path class="st1" d="M209.098,301.009c2.458,4.786,5.246,9.101,10.069,10.48C216.284,307.318,214.105,302.127,209.098,301.009z"/>
	<path class="st1" d="M250.036,310.042c-4.396-3.998-8.321-8.671-12.228-13.367C236.671,300.387,245.142,311.73,250.036,310.042z"/>
	<path class="st1" d="M245.416,311.692c-3.64-5.085-9.366-7.166-11.577-14.303c-1.06,0.188-2.116,0.378-3.173,0.569
		C234.483,304.12,237.236,311.801,245.416,311.692z"/>
	<path class="st1" d="M214.795,300.807c0.776,3.741,4.918,10.749,10.865,10.336C222.7,306.745,219.166,303.176,214.795,300.807z"/>
	<path class="st1" d="M137.969,315.42c-1.835,1.036-5.53,0.782-5.127,3.378C134.676,317.758,138.371,318.014,137.969,315.42z"/>
	<path class="st1" d="M231.356,310.938c-2.261-4.734-5.226-8.458-9.929-9.683C224.027,305.503,225.865,310.851,231.356,310.938z"/>
	<path class="st1" d="M236.118,310.084c-1.231-4.558-4.782-5.773-6.614-9.459c-1.32,0.008-1.226,0.99-2.236,1.22
		C230.643,303.979,231.02,310.423,236.118,310.084z"/>
	<path class="st1" d="M172.802,313.26c3.581,3.172,7.973,5.175,13.327,5.798C182.756,315.585,177.974,314.141,172.802,313.26z"/>
	<path class="st1" d="M181.509,320.706c-3.639-1.94-9.135-5.914-13.039-4.211C172.157,318.361,177.157,323.055,181.509,320.706z"/>
	<path class="st1" d="M177.176,323.944c-1.854-3.661-5.979-4.054-9.868-4.783C169.889,321.773,172.35,324.557,177.176,323.944z"/>
	<path class="st1" d="M497.441,273.815c2.137,1.065,2.857-2.63,5.699-0.204c-1.037-5.315-1.613-10.236-3.074-12.552
		C495.615,262.827,502.055,272.163,497.441,273.815z"/>
	<path class="st1" d="M151.561,331.816c8.99,1.028,14.846-3.019,22.729-5.719c-3.075-2.566-7.042-3.854-12.107-3.558
		c2.198,2.162,6.342,1.529,8.139,4.271c-5.069-0.036-7.908-3.277-12.901-3.42c0.741,3.264,4.672,1.935,5.759,4.703
		c-3.279,0.39-5.048-1.397-7.71-1.894c-1.877,1.805,2.901,2.403,3.884,3.399c-1.023,1.076-6.342-0.156-8.363-0.959
		C148.026,329.917,154.147,331.094,151.561,331.816z"/>
	<path class="st1" d="M144.135,331.514c0.484,2.961,3.94,1.652,6.774,1.239C150.032,330.357,146.087,332.362,144.135,331.514z"/>
	<path class="st1" d="M190.28,333.056c5.79,1.236,8.128-5.91,15.299-6.021C201.827,322.912,193.463,330.212,190.28,333.056z"/>
	<path class="st1" d="M311.844,334.986c-4.271-8.834-10.994-14.137-13.565-25.415c-0.793,0.145-1.59,0.286-2.382,0.429
		C300.023,320.041,304.237,329.95,311.844,334.986z"/>
	<path class="st1" d="M306.801,334.253c-5.043-7.053-8.988-15.688-13.935-22.888C292.781,316.232,299.405,331.539,306.801,334.253z"
		/>
	<path class="st1" d="M209.323,329.637c-4.685-3.979-9.195,3.641-13.998,4.152C199.768,337.301,202.965,329.282,209.323,329.637z"/>
	<path class="st1" d="M500.029,279.086c0.311,7.068,1.018,17.306,1.891,24.234c4.205-5.469,0.551-16.753,1.934-25.741
		C501.882,277.598,502.388,279.337,500.029,279.086z"/>
	<path class="st1" d="M475.493,288.403c2.513-0.334,2.356-2.524,2.457-4.537C475.748,284.414,474.818,285.853,475.493,288.403z"/>
	<path class="st1" d="M323.241,334.578c-3.826-7.143-9.201-12.061-12.573-19.858C310.471,319.761,316.299,333.171,323.241,334.578z"
		/>
	<path class="st1" d="M322.914,319.074c10.332,12.762,17.295,30.377,32.007,36.844c-10.419-11.642-20.793-23.344-29.625-37.271
		C324.501,318.788,323.708,318.931,322.914,319.074z"/>
	<path class="st1" d="M390.179,324.197c-0.346-4.837-7.569-8.405-10.498-12.858C379.508,316.927,387.124,319.929,390.179,324.197z"
		/>
	<path class="st1" d="M347.596,342.491c-4.251-7.863-10.39-13.012-14.448-21.159c-0.791,0.141-1.587,0.282-2.377,0.425
		c9.777,11.896,16.359,28.394,29.988,34.751C361.188,353.942,351.337,346.411,347.596,342.491z"/>
	<path class="st1" d="M337.4,322.206c5.166,6.574,9.273,15.493,14.591,21.954c4.41,5.351,10.246,12.043,17.782,12.367
		c-11.986-10.243-20.501-21.656-30.926-35.403C337.903,321.165,337.468,321.555,337.4,322.206z"/>
	<path class="st1" d="M222.691,349.354c-0.893-3.377-3.076-4.897-6.552-4.558C217.517,347.474,219.701,348.992,222.691,349.354z"/>
	<path class="st1" d="M361.655,343.243c-4.464-7.556-10.136-13.38-15.095-20.224C346.69,329.038,355.815,338.835,361.655,343.243z"
		/>
	<path class="st1" d="M367.065,341.452c-4.734-6.501-10.071-12.144-15.461-17.703C353.781,329.948,360.391,338.401,367.065,341.452z
		"/>
	<path class="st1" d="M381.087,328.287c1.934-1.58-1.878-3.195-2.443-4.476C376.706,325.391,380.521,327.007,381.087,328.287z"/>
	<path class="st1" d="M367.211,342.244c3.01,5.082,9.583,13.44,18.064,13.958C379.236,351.575,374.572,344.97,367.211,342.244z"/>
	<path class="st1" d="M364.178,343.609c-0.796,0.141-1.587,0.285-2.38,0.427c3.835,6.798,8.203,12.834,16.989,12.514
		C374.239,351.775,367.734,349.81,364.178,343.609z"/>
	<path class="st1" d="M248.776,389.717c-1.382-4.157-4.993-13.334-10.785-14.445C242.102,379.345,243.192,387.763,248.776,389.717z"
		/>
	<path class="st1" d="M263.425,384.633c1.885-0.08,3.023-0.678,3.824-1.508C266.148,381.463,262.926,381.873,263.425,384.633z"/>
	<path class="st1" d="M231.666,399.345c-0.596-2.035-0.323-3.468,1.81-3.605c-0.334-2.514-2.522-2.358-4.537-2.462
		C228.079,394.81,228.381,400.719,231.666,399.345z"/>
	<path class="st1" d="M244.587,393.748c2.35,2.94,4.307,6.449,8.563,6.649c-1.562-3.403-4.603-4.693-6.329-7.871
		C245.5,392.534,245.592,393.521,244.587,393.748z"/>
	<path class="st1" d="M316.57,384.101c-0.562,0.533-1.139,1.058-2.236,1.22c5.357,3.613,8.771,10.016,15.912,11.067
		C327.112,390.242,320.925,388.485,316.57,384.101z"/>
	<path class="st1" d="M311.95,385.747c-2.568,2.551,4.043,6.895,7.775,6.796C317.964,389.083,314.35,388.293,311.95,385.747z"/>
	<path class="st1" d="M333.215,390.122c2.835-1.958-1.542-7.583-5.249-6.43C328.598,387.438,331.178,388.392,333.215,390.122z"/>
	<path class="st1" d="M320.821,384.976c3.058,2.593,5.44,6.16,9.506,7.302C328.653,387.692,326.154,384.3,320.821,384.976z"/>
	<path class="st1" d="M501.882,353.287c1.382,5.36,0.146,8.896,1.771,14.425c1.51-4.04,0.554-9.802,0.609-14.851
		C503.473,353.003,502.675,353.146,501.882,353.287z"/>
	<path class="st1" d="M346.074,411.567c-4.657-4.292-8.777-9.348-13.163-14.02C334.252,402.616,338.248,412.492,346.074,411.567z"/>
	<path class="st1" d="M249.593,412.508c1.333,2.408,3.124,4.159,4.455,6.568C256.854,417.371,252.497,412.258,249.593,412.508z"/>
	<path class="st1" d="M394.944,387.231c0.807,4.18,8.349,7.283,12.451,10.048C406.062,393.86,399.059,389.973,394.944,387.231z"/>
	<path class="st1" d="M247.354,413.728c-0.234,4.346,5.458,8.776,7.977,12.493c-6.296-1.266-6.843-10.794-13.532-11.498
		c5.234,6.456,9.197,14.731,16.402,18.354c-0.768-2.223-3.256-1.979-3.379-5.128c3.596-0.177,3.371,5.136,7.346,4.417
		c-2.074-3.341-5.315-5.004-6.613-9.463c4.738,1.172,5.09,8.656,10.58,8.75c-2.972-4.383-6.289-8.268-9.565-12.209
		C253.038,424.061,250.604,415.545,247.354,413.728z"/>
	<path class="st1" d="M350.831,410.71c-2.679-5.13-9.022-4.993-10.353-12.062c-1.059,0.189-2.116,0.38-3.176,0.568
		C341.085,403.541,345.051,412.557,350.831,410.71z"/>
	<path class="st1" d="M308.088,405.28c1.482,5.523,2.701,11.424,7.833,11.698C313.588,412.679,312.703,406.299,308.088,405.28z"/>
	<path class="st1" d="M239.053,417.677c1.896,2.928,4.247,5.207,6.327,7.869C247.859,423.398,242.522,417.67,239.053,417.677z"/>
	<path class="st1" d="M404.385,389.632c2.044,3.721,4.755,6.474,9.36,6.509C411.352,392.924,408.231,390.754,404.385,389.632z"/>
	<path class="st1" d="M320.255,413.742c-1.809-2.39-3.027-5.628-4.741-8.155C312.778,408.277,316.724,415.696,320.255,413.742z"/>
	<path class="st1" d="M337.202,412.339c-1.388-3.667-4.19-5.291-6.328-7.873C330.032,407.379,333.51,412.629,337.202,412.339z"/>
	<path class="st1" d="M325.953,413.54c-1.105-3.404-3.778-4.549-5.395-7.224C319.854,408.377,322.025,414.829,325.953,413.54z"/>
	<path class="st1" d="M376.937,410.12c-4.15-4.677-10.697-5.913-14.972-10.42C361.203,403.591,370.659,409.731,376.937,410.12z"/>
	<path class="st1" d="M379.848,398.951c-0.58,2.86,3.948,6.946,8.421,5.859C386.021,402.058,382.508,401.114,379.848,398.951z"/>
	<path class="st1" d="M280.011,417.692c-3.58,0.753-5.444,2.696-8.304,3.946C274.379,423,280.113,420.57,280.011,417.692z"/>
	<path class="st1" d="M244.076,427.42c-0.533-0.562-1.058-1.139-1.218-2.239c-2.427,0.848-3.411-1.172-4.762,0.855
		C239.521,427.334,242.942,428.763,244.076,427.42z"/>
	<path class="st1" d="M497.062,381.181c-1.038,2.29-3.082,3.876-2.828,7.061C496.334,386.692,497.827,384.724,497.062,381.181z"/>
	<path class="st1" d="M243.57,429.149c1.364,3.944,5.671,8.135,9.868,4.785c-1.13-3.707-3.846-5.122-5.533-8.021
		C245.544,428.115,249.439,429.392,243.57,429.149z"/>
	<path class="st1" d="M360.072,407.414c6.773,3.89,13.094,10.378,20.67,10.212C374.244,414.255,367.12,406.689,360.072,407.414z"/>
	<path class="st1" d="M326.886,414.192c-1.322,0.006-1.229,0.994-2.236,1.219c-0.238,2.673,2.354,1.278,2.95,2.748
		C329.42,417.621,327.432,414.59,326.886,414.192z"/>
	<path class="st1" d="M336.552,413.276c2.621,1.555,2.246,7.417,7.487,5.208C342.54,415.316,339.868,413.833,336.552,413.276z"/>
	<path class="st1" d="M331.793,414.131c0.834,1.798,1.729,3.5,3.887,3.396C334.845,415.73,333.947,414.026,331.793,414.131z"/>
	<path class="st1" d="M240.679,431.309c1.245,1.868,2.264,4.068,4.175,4.983c0.791-0.143,1.585-0.286,2.378-0.429
		C245.62,433.525,244.062,431.104,240.679,431.309z"/>
	<path class="st1" d="M344.771,413.437c2.492,3.737,4.987,7.472,10.947,6.226C351.882,417.854,350.697,412.242,344.771,413.437z"/>
	<path class="st1" d="M316.997,418.425c-3.567,1.05,0.359,6.153,3.237,4.333C319.796,420.391,317.687,420.431,316.997,418.425z"/>
	<path class="st1" d="M493.582,389.179c-3.419,5.029-8.368,8.992-9.479,15.627C489.097,400.87,491.356,395.037,493.582,389.179z"/>
	<path class="st1" d="M238.076,435.05c1.37,1.026,2.223,2.793,3.236,4.333c1.442-0.155,1.501-1.269,3.032-1.362
		C242.792,436.261,240.974,434.881,238.076,435.05z"/>
	<path class="st1" d="M236.124,437.858c0.142,0.791,0.283,1.586,0.427,2.379c1.375-0.433,4.117,0.089,2.89-2.157
		C238.035,438.438,237.589,437.41,236.124,437.858z"/>
	<path class="st1" d="M483.003,412.374c-5.126,4.766-9.516,10.048-13.588,15.545C475.715,426.744,480.954,418.821,483.003,412.374z"
		/>
	<path class="st1" d="M484.795,417.784c-3.427,0.182-7.127,6.142-8.891,9.787c3.494-0.112,4.982-1.626,5.922-3.52
		c0.74,0.582,0.328,3.567,3.741,2.604C487.4,422.748,481.982,421.438,484.795,417.784z"/>
	<path class="st1" d="M504.083,370.088c-5.191-5.569-4.038-14.905-5.069-23.663c-2.357-20.014-6.616-40.55-4.843-58.921
		c-1.664,1.499-1.178,1.936-3.827,1.507c-3.985,17.277-10.608,32.27-20.221,47.039c-0.716-12.306,8.939-23.406,14.422-33.715
		c2.358-12.241,8.469-23.211,9.38-34.447c-8.95,18.082-12.097,40.197-24.352,55.974c-1.093-10.709,6.606-15.31,7.912-24.354
		c-3.97,2.794-4.548,7.947-7.814,11.229c-0.866-7.248,5.492-12.241,5.96-21.543c-4.215,3.315-4.271,9.526-8.318,12.961
		c-1.579-11.98,9.067-21.468,10.311-33.797c-5.963,2.336-4.458,15.876-10.209,20.673c-1.997-0.564,0.568-3.277-2.301-3.682
		c-3.366,3.906,1.103,12.794,1.547,17.741c0.112,1.258-0.979,2.273-1.017,3.456c-1.16,38.303-0.128,79.271-6.527,114.203
		c-5.909-37.876-0.986-77.787-1.409-112.777c-0.454,0.354-0.816,0.757-1.112,1.193l-0.123-2.648c2.626-0.958,2.29-5.671,0.461-7.417
		c3.393-18.654-6.221-39.604-16.464-55.199c0.95-2.262,2.689,2.717,5.191,1.528c-2.214-2.044,4.087-2.812,6.711-3.661
		c-2.483-4.417-11.968,1.233-14.483-3.134c3.433-4.117,12.398,1.421,13.711-5.74c0.953-0.041,0.929,1.327,1.222,2.239
		c1.969-0.019,1.465-1.76,3.823-1.507c-0.237-1.321-0.473-2.643-0.712-3.965c-16.923,4.074-41.441,4.955-40.08,27.676
		c-32.646-16.452-72.305-22.387-113.937-27.868c-15.535-2.043-30.404-7.301-47.795-6.163c-23.31,1.529-46.341,7.219-69.32,10.808
		c-13.938,2.177-28.426,3.356-42.993,6.897c-2.164,0.81-3.02,2.528-5.126,3.379c-33.728,4.234-62.814,18.571-93.507,26.617
		c-3.805,5.727-15.276,4.223-17.476,12.149c17.908-10.59,40.766-17.813,61.4-18.397c15.451-10.582,37.917-13.222,56.359-19.126
		c0.901,0.367,1.148,1.676,2.663,1.159c9.726-7.099,31.389-4.4,45.313-12.23c11.36,2.41,21.566-1.364,32.022-4.113
		c40.902-10.745,79.25-0.433,104.583,21.36c8.075,9.354,16.952,17.553,25.898,25.654c-12.535-20.902-30.702-33.72-50.518-44.166
		c18.907,4.614,42.835,26.056,54.347,42.66c2.042,2.945,2.227,8.008,7.119,7.733c-13.219-20.597-28.53-38.184-48.852-48.566
		c28.793,8.187,41.716,39.193,61.592,60.203c-13.133-24.047-29.005-44.156-48.979-58.373c35.688,16.249,52.49,68.294,81.409,97.598
		c-11.606-3.611-18.462-22.704-30.581-28.908c9.219,10.37,17.15,22.595,27.691,31.065c-4.06,0.834-8.33-6.644-12.312-9.255
		c1.488,5.527,8.783,11.33,12.803,16.538c-12.766-6.604-20.334-20.682-32.171-28.623c8.469,13.446,20.32,22.031,30.503,33.02
		c-7.424-4.637-14.07-10.392-20.225-16.847c2.18,7.52,11.296,13.701,17.334,19.002c-11.676-4.535-22.682-18.619-32.311-29.417
		c-2.407,2.574,3.646,8.17,6.612,9.459c4.971,9.823,13.558,14.452,20.286,21.748c-6.114,0.14-7.708-6.221-12.821-7.527
		c-0.206-2.36-2.232-2.115-2.438-4.474c-7.67-3.62-10.448-14.27-18.639-17.133c9.671,12.788,18.589,21.803,29.421,31.576
		c2.115-0.378,4.232-0.76,6.35-1.14c-17.174,8.113-37.69,6.535-52.86,2.119c0.371-0.901,1.676-1.147,1.16-2.668
		c-6.121-5.074-13.502-10.577-18.78-17.922c-4.365-6.075-5.892-15.787-13.875-17.988c8.371,11.926,15.633,25.444,25.879,34.67
		c-8.102-2.657-11.753-11.72-19.143-15.398c4.683,9.568,12.84,14.145,19.347,21.097c-7.794-3.107-16.166-14.027-23.457-21.179
		c-1.772,3.638,4.746,6.932,7.548,10.107c3.732,4.235,6.253,9.817,11.006,11.132c-8.84-1.936-16.519-14.185-23.604-21.973
		c0.085,7.387,11.202,15.708,16.972,21.527c-9.526-0.954-14.733-16.753-23.604-21.971c-1.92,2.184,2.106,4.227,2.727,6.062
		c-3.404-0.099-3.19-5.399-6.692-5.353c-1.815,2.899,2.527,3.003,2.726,6.062c-5.755-3.369-10.037-8.859-12.795-16.538
		c4.465,1.563,4.301,9.781,9.925,9.686c-4.488-7.19-8.403-15.204-13.652-21.304c0.099,4.187,2.607,4.905,3.155,8.445
		c-3.933-0.673-3.348-7.834-7.916-7.59c-1.589,2.408,2.241,2.642,2.586,5.271c-1.016,2.03-3.471-2.266-4.03-4.19
		c-3.902,2.601-2.45-1.488-6.633-0.451c0.789,3.523,2.995,5.012,5.25,6.43c-1.797,0.885-6.187-3.061-7.632-6.001
		c5.145-4.058,17.487-3.114,17.763-10.562c-3.925,2.907-10.651,5.707-14.363,6.676c3.259-4.445,12.237-4.912,13.652-10.643
		c-9.428,3.948-25.652,12.249-35.077,14.489c1.262-3.191,5.096-1.904,6.713-3.665c-3.088-2.593-5.694,1.063-8.729,1.568
		c-4.971,0.831-10.251-1.538-15.788-1.261c-9.324,0.47-19.734,4.846-29.421,0.369c1.565-1.809,3.218-1.95,6.491-0.348
		c-0.698-4.175-6.38-9.322-11.004-11.126c1.692,3.55,4.698,5.22,6.467,8.663c-1.808-0.088-7.917-2.57-8.059-8.381
		c-1.716-0.038-2.001,0.919-3.028,1.362c-2.014-3.761-1.187-11.604-5.454-12.125c-0.104,4.788,0.924,10.365,1.119,15.361
		c-3.038-1.627-2.733-8.052-5.82-9.603c-2.147,0.125,1.541,4.312-1.808,3.6c2.687,0.977,2.783,1.882,2.583,5.27
		c-1.394,1.937-6.686-4.292-8.504-1.747c1.652,3.612,6.89,2.072,9.076,4.923c-2.26,2.573-7.16-3.904-9.3-1.609
		c2.267,4.064,7.227,4.254,10.295,7.163c-3.49,1.849-9.819-5.622-13.691-3.273c2.918,3.455,6.979,5.269,11.739,6.08
		c-0.458,1.535-3.04,1.59-1.668,4.395c-12.962,5.293-32.795,18.084-47.976,11.073c-10.764,3.798-23.508-2.518-22.463-15.627
		c3.258,19.463,25.289,15.554,38.495,4.557c2.395-2.501,1.701-7.147,5.857-8.423c-0.559-8.083-5.853-12.915-12.511-14.955
		c-6.764,3.86-17.311,5.088-24.683,8.526c3.749-5.914,15.64-8.437,22.812-9.826c3.228-4.698,8.877-7.713,13.507-11.438
		c30.081-12.766,75.74-20.015,107.08-33.146c2.469,0.268-1.626,1.518-0.223,3.318c9.39,2.472,14.927,10.482,23.112,14.688
		c-6.197-7.06-12.55-13.896-21.811-16.561c1.12-3.812,5.558-1.587,5.046,0.734c8.812,2.969,14.741,10.085,22.973,13.895
		c-5.112-7.292-12.086-11.905-19.941-15.259c0.484-1.518,2.168-2.195,4.476-2.443c-0.115,1.307-2.373,1.126-1.016,3.46
		c11.521,2.734,17.922,12.835,27.797,17.944c-6.943-7.994-15.195-14.096-23.971-19.451c11.412,1.897,21.471,14.388,32.331,20.405
		c-6.003-8.678-14.382-13.935-22.382-19.731c12.689,3.046,19.13,15.087,30.599,19.896c-6.996-8.245-15.693-14.046-24.108-20.242
		c11.341,4.322,19.911,12.63,29.013,20.183c-3.062-7.922-14.177-12.895-20.653-19.23c11.939,3.467,19.393,13.387,29.017,20.184
		c-11.662-16.183-29.051-29.448-46.942-33.345c4.32,4.105,11.312,4.374,15.485,8.689c-7.9-0.964-18.18-7.138-28.465-7.993
		c2.028,3.405,6.878,2.754,9.216,5.713c-12.733-0.87-35.292,2.904-47.326,10.135c-2.47-0.096,0.457-1.832-0.57-3.172
		c-2.527-0.141-2.088,1.787-4.618,1.648c-0.024-2.798,1.991-4.17,1.1-7.571c-3.212,1.7-4.546,4.709-7.871,6.327
		c-0.736-4.444,2.989-5.788,2.256-10.233c-5.925,3.518-6.041,11.074-11.207,15.118c-4.387-1.117-0.88-4.194-2.873-6.856
		c-3.515,0.336-2.777,3.622-3.906,5.618c-2.375-1.885-2.02-6.788-6.327-7.876c-1.872,1.389-2.199,2.088-0.875,4.253
		c-5.359,1.67-3.456,2.598-7.649,3.011c0.778,3.204,2.916,4.459,4.455,6.57c-3.599-0.151-4.551-4.104-7.49-5.206
		c-3.151,1.719,0.733,5.666,2.079,6.998c-3.743,2.365-4.851-7.647-10.152-6.369c-0.073,3.438,2.215,3.472,2.727,6.064
		c-2.693-1.454-3.917-5.019-8.14-4.274c0.223,3.679,2.451,4.471,3.664,6.715c-3.621-0.784-5.017-4.764-7.773-6.795
		c-3.035-0.027-1.478,3.136-2.459,4.537c-2.938-0.438-2.756-5.355-6.555-4.556c1.281,4.48,4.772,5.785,5.963,10.393
		c-4.849-2.346-6.088-9.88-11.803-10.983c-0.374,3.214,4.302,6.875,5.964,10.397c-7.786-1.454-7.86-13.995-16.48-14.244
		c4.67,6.929,9.047,14.281,15.606,18.497c-9.491-2.328-13.527-12.503-19.859-19.37c-3.976,3.792-0.389,13.339,1.548,17.739
		c-4.293,1.514-2.813-5.273-5.902-5.489c-3.051-0.21-0.688,4.443,0.063,4.9c-0.705,1.903-3.063-2.175-5.839-0.588
		c0.132,1.139,0.271,2.269,1.219,2.237c-0.952,2.266-2.686-2.716-5.187-1.524c0.246,1.972,0.566,3.842,1.647,4.617
		c-1.157,2.24-2.808-3.214-5.983-1.386c-0.137,2.531,1.79,2.09,1.65,4.621c-3.255,0.024-2.877-5.182-6.553-4.556
		c0.26,2.953,1.674,4.25,2.728,6.063c-5.411,1.451-3.67-7.372-9.87-4.781c0.537,2.222,2.048,3.046,2.586,5.268
		c-2.482,2.197-3.677-5.996-8.139-4.274c-0.143,2.87,1.73,2.84,1.792,5.416c-2.633,2.74-2.888-6.467-7.347-4.419
		c-1.177,1.814,1.02,4.404,1.934,6.208c-3.932-0.338-3.943-6.309-8.421-5.861c0.572,2.501,2.424,3.167,2.725,6.065
		c-3.173-0.76-3.47-5.658-6.835-6.144c-1.093,2.295,2.363,4.728,3.008,7.649c-2.856,2.077-3.853-7.08-8.422-5.859
		c0.125,3.145,2.111,3.619,2.076,6.999c-6.731-4.175-4.554-11.511-8.831-17.255c-4.479-0.058,0.708,2.644-3.541,3.095
		c5.723,5.389-0.999,10.19,1.914,15.218c-1.113,1.851-3.714-2.588-5.473-3.115c-2.925,1.295,1.039,4.408,1.932,6.207
		c-3.213-0.37-3.993-4.236-7.995-3.478c-0.074,3.433,2.214,3.471,2.727,6.063c-3.525,1.072-2.879-3.85-6.266-2.973
		c-1.445,1.98,0.465,3.559,1.646,4.619c-2.924,0.209-4.249-1.879-6.268-2.971c-2.53-0.371-1.088,2.021-1.018,3.461
		c-2.43,0.83-2.232-2.112-5.045-0.735c-1.217,1.777,0.27,2.011,0.714,3.967c-5.126-3.201-9.941,1.791-15.648-0.464
		c-1.758-0.069-1.307,1.403-1.158,2.664c-2.434-0.093-4.132-4.543-6.125-2.178c0.533,0.563,1.06,1.14,1.221,2.238
		c-3.989-1.256-4.597-7.366-10.151-6.37c-1.814-4.963,0.888-6.788,0.527-10.741c-11.86,12.127,4.894,21.176,15.016,24.336
		c28.021-2.783,49.907-14.794,80.793-15.328c0.24-2.675-2.811-0.615-2.951-2.746c1.005-2.648,2.835,1.818,5.697-0.204
		c3.569-0.58-1.509-2.137-1.505-3.826c2.425,1.506,4.274,3.839,7.997,3.481c1.604-2.22-1.452-1.262-1.504-3.826
		c2.794,0.642,3.392,4.444,7.852,2.685c-0.189-3.057-2.235-3.442-3.378-5.126c3.532,0.244,4.221,4.575,8.139,4.272
		c1.216-1.778-0.729-1.353-0.714-3.968c3.429,1.286,3.89,4.217,8.505,1.749c-5.777,4.254-18.242,4.564-26.043,5.495
		c4.277,3.333,7.668-0.394,14.853,0.61c-6.771,5.87-15.558,5.395-21.586,12.067c-7.876,8.715-1.903,24.333,7.142,30.661
		c8.357,1.297,16.826,2.43,25.881,2.724c3.854,13.43,13.968,17.855,23.095,23.703c-5.911,7.15-0.379,18.354,1.017,28.485
		c3.565,0.864,4.816,5.058,9.728,3.986c6.384,4.822,4.542,15.893,14.384,16.258c-0.312,4.874-1.44,9.18-2.482,13.547
		c4.714,14.186,15.506,19.64,23.299,29.4c22.457,7.92,53.242,9.402,82.486,3.212c33.176-7.024,63.405-9.175,89.823-24.318
		c11.736-2.947,20.394-8.032,28.729-13.348c6.638,5.913,15.168,23.444,26.799,12.39c2.731-0.934,2.453,2.457,5.187,1.522
		c-3.314-5.504,3.824-8.606,5.938-12.532c-0.441,3.396-2.811,5.452-4.269,8.138c2.823,0.808,9.116,0.456,13.124,0.103
		c4.572-8.158,12.25-14.163,16.417-22.604c-8.501,6.351-12.496,15.843-21.465,21.872c4.939-11.61,17.929-17.619,19.758-31.395
		c-5.236,6.08-8.755,13.353-13.673,19.655c-0.465-7.908,8.76-18.201,13.101-22.831c-6.925-1.734-9.307,11.523-14.386,15.689
		c-1.807-7.391,10.168-16.292,11.74-25.861c-5.99,3.698-6.612,11.138-12.003,15.256c-1.51-0.869,0.038-5.486,0.306-7.424
		c11.354-13.397,20.623-28.244,28.077-44.355c5.057,1.683,0.558,8.228-1.185,11.679c-3.984,7.908-11.649,17.275-13.605,24.559
		c7.711-7.363,10.049-18.468,18.373-25.412c-1.644,10.921-12.214,21.578-17.094,32.552c7.914-4.254,10.716-17.979,17.578-25.269
		c0.399,8.608-8.024,17.096-10.944,25.717c-2.763,1.389-5.479,3.881-3.763,6.408c6.29-7.892,12.301-15.976,14.912-26.429
		c3.901,15.686-3.969,26.295-13.2,35.953c0.178,3.925,2.052,5.422,1.422,7.935c1.574-0.525,1.169-2.428,2.746-2.955
		c2.679,1.814-1.891,5.688,1.424,7.938c2.367-2.205,1.602-2.269,4.188-4.03C495.353,403.447,510.498,386.276,504.083,370.088z
		 M294.731,248.781c-2.414,0.144-4.911,0.406-5.979-1.387C291.413,246.893,293.146,247.737,294.731,248.781z M174.854,265.387
		c0.527-0.096,1.055-0.191,1.587-0.288c0.066,2.566,1.688,2.901,2.441,4.48c-2.755,0.63-3-2.347-4.68-3.257
		C174.679,266.191,175.119,266.034,174.854,265.387z M156.216,280.199c-0.897-1.038-1.639-2.301-3.602-1.812
		c1.62-2.667-2.205-4.316-0.995-5.555C152.834,275.119,157.392,277.798,156.216,280.199z M148.83,261.87
		c3.306,5.895,7.381,10.683,11.722,15.094C155.45,274.307,148.201,269.442,148.83,261.87z M134.919,325.796
		c2.427-1.112,6.401-4.768,9.233-3.297C141.01,323.117,137.008,326.754,134.919,325.796z M127.491,325.491
		c8.932-2.588,16.374-9.9,25.187-10.255C144.194,318.134,135.814,324.796,127.491,325.491z M141.387,302.521
		c-5.76,1.327-11.664,6.226-17.033,5.516C129.333,306.53,139.331,301.464,141.387,302.521z M121.383,314.3
		c10.183-4.543,24.795-17.438,33.044-7.568c-2.082,1.327-5.049,2.04-5.777,4.312c3.58-0.252,3.75-1.8,6.348-1.14
		c6.77-0.383-3.626,1.656-3.031,1.364c-6.17,3.011-18.157,10.764-26.348,12.923c-0.709-3.504,5.798-1.987,5.635-5.109
		c-3.641,0.015-4.573,1.913-7.791,2.217C122.096,319.073,120.68,316.918,121.383,314.3z M427.858,242.078
		c0.249,2.952-2.067,4.12-3.907,5.614C423.664,244.716,426.792,244.113,427.858,242.078z M424.233,249.282
		c-1.917,2.368,1.203,8.241-2.397,9.438C420.698,254.227,421.663,251.19,424.233,249.282z M427.27,279.864
		c-4.481-6.541-11.758-14.378-14.305-20.37c2.674,1.481,3.831,5.137,7.484,5.21c-0.623-1.101-1.531-1.789-2.154-2.89
		c3.788,1.226,11.302,2.363,10.295,7.161c-1.184-1.961-2.118-4.279-4.823-4.051c3.772,9.179,8.483,9.065,9.625,17.113
		c-4.72-3.531-6.299-11.582-11.578-14.303c3.477,6.231,8.957,18.282,12.294,18.271c-2.093,1.696,1.997,3.863,0.061,4.903
		c-3.357-2.162-3.764-8.568-8.202-9.175c2.688,6.988,10.99,15.861,9.686,22.011c-7.855-18.321-22.03-32.878-29.893-47.87
		C413.652,262.202,419.403,276.806,427.27,279.864z M435.066,309.586c0.082,1.876,2.447,0.469,2.807,1.953
		c-1.607,2.448,2.891,6.572-0.022,9.016c-9.091-26.012-25.441-47.142-40.734-67.223
		C413.048,267.367,425.351,286.614,435.066,309.586z M382.995,247.675c3.556,1.879,5.01,6.773,9.504,7.306
		c-0.49-1.706-4.35-3.632-2.587-5.269c18.562,17.251,34.135,44.094,45.132,68.888c-5.188-3.995-8.433-9.569-11.863-15.889
		c-1.66-3.061-1.945-7.285-3.438-10.031c-3.519-6.458-9.175-12.496-13.225-18.92c-4.114-6.521-7.9-14.147-13.738-17.19
		c15.71,23.507,28.772,45.379,42.895,70.107c-4.844,0.311-4.679-6.586-8.707-7.444c-13.259-25.869-27.616-50.149-45.275-69.683
		C381.606,248.565,381.593,247.627,382.995,247.675z M436.955,333.815c-21.505-15.664-31.176-48.347-49.24-68.966
		c-1.696-6.178-14.156-15.953-14.304-20.37C399.938,266.219,414.606,309.281,436.955,333.815z M434.354,337.563
		c2.453,2.613,5.475-0.199,4.167,4.983c-20.35-16.332-36.61-47.2-52.473-73.305c-7.029-8.534-16.38-19.042-21.287-27.305
		C393.421,265.96,408.905,308.926,434.354,337.563z M437.201,353.434c-4.241-6.556-13.58-11.081-14.813-18.636
		c5.28,5.057,9.633,11.441,15.833,15.177C435.962,349.791,439.46,353.612,437.201,353.434z M430.386,370.219
		c-6.626-6.118-17.646-11.229-19.348-21.097c3.358,2.156,5.057,6.702,9.5,7.302c-0.449-6.712-10.906-8.428-7.468-14.219
		c5.715,8.76,16.807,15.097,19.923,24.271c-4.748-2.493-6.59-9.158-12.455-10.052C420.182,361.759,430.81,364.822,430.386,370.219z
		 M415.815,339.251c6.183,6.086,12.034,12.651,18.134,18.861c1.568,0.493,4.817,0.149,2.95,2.746
		C429.435,358.935,418.887,347.491,415.815,339.251z M418.565,336.299c5.032,6.743,11.771,11.031,16.399,18.354
		C428.895,350.062,420.195,343.951,418.565,336.299z M435.778,345.499c-12.808-9.209-20.865-25.244-32.659-35.912
		c4.732,10.173,12.39,16.131,18.334,24.559c-18.174-13.463-32.421-39.651-45.945-59.735c-1.529-2.274-5.034-8.84-4.375-10.683
		c12.746,11.622,19.29,32.163,31.701,44.274c-12.649-22.463-28.531-48.791-46.434-67.019
		C389.431,266.376,405.608,315.992,435.778,345.499z M370.848,262.145c-5.194-1.014-8.774-7.583-12.735-11.643
		c-4.132-4.227-10.576-8.211-10.358-12.062C355.691,245.995,365.865,250.338,370.848,262.145z M391.726,309.997
		c-15.788-26.886-30.073-55.929-54.43-70.498c-0.041-0.955-0.539-2.225,0.365-2.525c13.417,8.331,25.214,18.997,32.66,35.91
		c17.553,17.694,28.168,45.359,46.37,62.116C405.638,330.592,400.665,317.444,391.726,309.997z M431.303,379.884
		c-11.255-4.806-25.49-15.896-29.077-25.085C411.419,363.88,420.873,372.581,431.303,379.884z M388.695,375.247
		c-7.791-2.106-14.9-5.198-19.367-12.085C375.382,367.106,385.248,370.881,388.695,375.247z M376.752,363.467
		c6.603,2.156,12.77,4.938,17.357,9.988C389.308,372.696,381.553,367.556,376.752,363.467z M380.62,375.878
		c-7.031-1.875-16.164-6.037-18.436-11.433C368.562,367.919,375.481,370.618,380.62,375.878z M370.526,374.413
		c-7.903-0.62-16.23-5.936-18.432-11.436C357.913,367.256,364.96,369.775,370.526,374.413z M362.449,375.044
		c-9.073-1.598-18.679-7.748-22.177-14.036C347.622,365.748,354.897,370.594,362.449,375.044z M324.342,358.952
		c-5.924-3.866-14.771-8.623-15.32-16.909C314.15,346.383,322.648,356.302,324.342,358.952z M316.915,358.646
		c-5.322-3.662-9.869-8.438-13.308-14.812C309.563,345.931,314.325,355.04,316.915,358.646z M301.877,343.327
		c-1.645,4.403,6.612,8.425,6.104,11.191c-4.43-0.62-5.078-6.668-10.153-6.37c2.077,3.032,7.46,6.558,8.059,8.385
		c-3.599-1.146-7.443-1.943-9.869-4.781c0.954-0.264,1.839-0.577,1.306-1.873c-3.25-3.088-8.386-7.306-8.627-11.556
		c2.812-1.38,2.616,1.564,5.044,0.731c-1.167,3.598,1.567,5.964,4.453,6.572c-0.244-2.049-4.289-3.704-2.582-5.271
		C297.109,342.198,300.984,340.62,301.877,343.327z M265.381,413.768c1.083-1.33,3.97-1.407,4.331-3.236
		c-1.437,0.074-3.826,1.514-3.458-1.016c5.015-1.411,3.884-2.817,9.097-4.092c1.026,2.8-3.605,1.66-3.399,3.888
		c5.976-0.242,6.988-3.937,13.204-4.008c-0.909,3.762-8.768,2.694-9.46,6.612c4.279-0.287,7.876-4.677,11.763-2.929
		c-7.419,2.938-12.59,7.444-21.224,9.54C266.676,415.867,265.983,416.718,265.381,413.768z M261.777,411.955
		c-1.147-1.342-2.479-2.425-3.234-4.331c6.848-2.8,16.527-8.916,23.237-7.452c-8.382,1.812-15.422,4.554-20.571,8.61
		C261.602,409.672,265.297,411.452,261.777,411.955z M260.903,416.208c-2.331-0.826-7.488-5.328-4.598-7.364
		C256.543,412.906,261.672,413.865,260.903,416.208z M272.785,391.142c-2.931,0.275-5.141,1.054-6.998,2.077
		c-2.053-2.035-2.744-6.04-6.042-6.29c3.796,0.328-1.036-5.348,1.383-5.979c7.29-0.87,18.716-10.173,27.201-8.161
		c-6.516,2.181-12.541,4.701-18.33,7.387c6.684,2.148,14.284-7.074,19.836-3.561c-9.656,2.772-18.955,5.795-25.044,11.048
		c9.015-1.468,15.722-8.372,22.44-7.305c-6.233,3.999-15.979,5.553-22.014,9.687c4.89,1.814,10.642-4.942,15.873-2.848
		c-2.38,0.889-6.078,0.866-5.925,3.517c4.049-0.845,10.699-5.855,13.349-3.215c-4.326,0.357-10.523,6.299-16.236,5.374
		C273.105,392.526,273.946,391.223,272.785,391.142z M260.839,347.42c-8.836,1.682-18.366,6.932-27.629,5.776
		C241.286,350.719,255.773,345.584,260.839,347.42z M235.531,347.868c11.889-1.614,15.411-4.193,24.314-6.003
		C256.295,346.175,241.645,349.95,235.531,347.868z M262.345,351.244c-7.254,1.231-12.514,3.278-18.106,4.069
		c1.776,1.442,5.929-0.54,7.567,1.098c-6.416,1.237-13.025,2.751-16.441-0.325C243.498,355.327,257.169,348.557,262.345,351.244z
		 M292.967,362.126c-4.139-1.367-7.612-3.692-11.596-5.287C287.423,355.453,289.644,359.588,292.967,362.126z M282.916,342.636
		c2.421,4.186,11.448,4.156,11.373,8.604c-0.357-1.147-2.046-0.383-3.313-0.219C290.199,346.125,282.51,345.915,282.916,342.636z
		 M286.903,364.854c-1.329-1.411-3.087-2.218-5.328-2.317c-2.408,3.415-10.174,3.107-13.715,5.736
		c-0.178-6.082,7.872-2.297,11.19-6.105c-4.224-1.371-8.975-0.26-14.424,1.772c-0.542-0.397-2.536-3.433-0.713-3.968
		c3.312,3.207,9.246,0.496,16.154-1.262C280.738,362.436,288.729,360.862,286.903,364.854z M279.255,367.866
		c-1.26,0.975-3.908,0.982-4.478,2.441c1.441,1.04,7.887-2.987,10.459-1.06c-8.553,3.541-17.038,7.129-25.982,10.4
		C258.761,371.528,272.529,366.385,279.255,367.866z M260.312,358.162c-6.145,3.104-17.896,5.038-23.153,3.335
		C243.816,360.8,253.959,358.537,260.312,358.162z M252.722,366.074c2.779-2.229,7.494-2.899,9.38-2.502
		C257.855,364.782,254.655,368.025,252.722,366.074z M255.367,376.25c-0.488-1.704-4.345-3.63-2.585-5.271
		C254.162,372.085,258.688,374.39,255.367,376.25z M260.599,391.69c0.042,1.603,1.354,1.387,2.013,2.097
		c-2.117,1.396-3.543,1.056-4.394-1.667C259.01,391.977,259.806,391.832,260.599,391.69z M268.392,421.416
		c6.371-4.366,15.649-10.404,24.253-10.904c-11.567,2.14-9.244,13.936-22.747,14.73
		C269.881,423.271,268.138,423.777,268.392,421.416z M297.387,418.669c-2.527-1.481-6.759,1.703-8.08,0.629
		C290.847,418.756,296.672,415.334,297.387,418.669z M295.088,414.985c0.563-4.336,1.957-8.229,0.387-11.534
		c-2.711-5.698-8.032-3.517-11.091-7.02C295.772,393.634,301.851,407.65,295.088,414.985z M296.531,381.964
		c2.612-3.902-1.912-13.497-1.405-16.949c4.713,4.111,2.36,8.609,4.149,13.999C296.601,378.772,298.658,381.825,296.531,381.964z
		 M289.873,326.645c1.52,4.14,4.126,6.712,5.963,10.395c-4.688-0.579-5.576-6.62-8.343-9.966
		C288.288,326.93,289.08,326.787,289.873,326.645z M283.892,325.261c-0.69,4.047,3.763,5.83,2.22,7.792
		c-2.625-1.551-3.463-5.672-5.534-8.017C282.042,324.591,282.488,325.614,283.892,325.261z M281.492,334.701
		c3.734,0.646,6.755,7.565,6.758,10.256c-2.583-2.945-5.674-5.16-8.713-7.449c2.989-4.724-2.688-8.726-2.786-10.966
		C278.13,329.785,283.239,329.901,281.492,334.701z M271.073,317.734c0.861,3.744,9.862,4.2,6.327,7.872
		c-1.064-3.63-1.783-1.294-2.379,0.427C273.116,322.991,270.005,318.252,271.073,317.734z M276.159,332.379
		c-0.359-0.661-2.771-3.087-2.664-1.161c0.9,0.18,2.625,4.023,1.506,3.83c-3.316-2.887-5.408-7.535-7.184-12.638
		C271.977,323.103,276.062,329.173,276.159,332.379z M200.146,305.894c1.441,2.253,3.45,3.692,5.107,5.637
		c-3.487,0.351-8.149,2.398-9.807,0.122c1.809-0.822,5.935-0.035,6.203-1.931C199.896,310.562,196.683,306.325,200.146,305.894z
		 M153.353,337.23c10.672-2.981,19.614-4.733,27.318-8.332c-1.537,1.028-2.592,2.475-1.134,3.632
		c3.902-2.39,9.37-7.356,14.362-6.674c-2.994,1.865-9.791,4.74-8.523,7.263c4.42-3.409,10.49-5.663,14.73-9.197
		c-4.021-1.445-8.162-1.734-12.045,1.342c5.902-10.31,19.959-2.031,24.579,4.6c-4.611,3.077-14.18,2.521-14.589,9.99
		c4.513-1.722,7.558-4.469,10.114-7.551c0.621,7.126-7.92,4.062-7.812,11.231c3.445,0.725,2.895-4.853,5.269-2.584
		c-1.356,1.604-3.306,2.795-3.113,5.475c2.56,0.312,3.181,3.415,6.265,2.969c-0.401-0.895-3.732-2.423-1.504-3.824
		c1.757,2.824,6.745,6.243,9.724,3.988c-2.984-2.03-6.139-3.818-9.216-5.719c8.283-12.863,29.613-20.995,47.346-19.148
		c7.526,2.872,19.795,18.536,11.62,28.222c4.738-9.409-4.761-25.046-13.29-23.826c1.387,2.61,10.183,4.287,6.331,7.874
		c-3.579-7.997-10.697-5.549-17.723-7.466c0.187,1.185,3.884,2.963,0.569,3.175c-2.796,0.026-4.171-1.991-7.57-1.099
		c0.81,3.1,2.598-1.382,2.809,1.951c-2.41,2.198-6.675,4.129-11.759,2.931c0.441,2.284,4.823,1.071,3.091,3.541
		c-2.998,0.725-4.998-3.298-7.425-0.305c0.688,1.417,4.837,2.923,3.236,4.333c-0.388-1.531-4.217-3.126-5.046-0.729
		c3.455,0.357,4.877,3.636,8.139,4.271c6.521-4.72,19.001-5.302,26.12-9.604c1.44,0.024,5.34,1.517,3.095,3.538
		c-9.444,0.843-25.45,3.126-30.233,9.523c-0.417-0.872-3.125-3.296-3.459-1.018c0.551,3.537,4.617,2.017,5.758,4.701
		c-5.25,1.642-7.733-5.172-11.168-2.909c4.01,3.549,8.874,5.876,13.752,8.178c-6.541,2.558-13.188-8.133-19.166-6.389
		c4.554,5.105,14.691,7.489,17.64,11.578c-8.769-2.368-15.501-7.663-23.338-11.372c-0.571-2.876-4.57-6.017-6.408-3.763
		c7.98,6.83,16.226,13.276,26.714,16.497c-9.117,2.055-16.052-7.478-23.989-10.438c3.899,7.041,11.815,8.306,17.786,12.37
		c-6.837,2.38-11.665-6.432-18.519-7.322c2.266,4.397,7.274,4.851,9.789,8.891c-6.55,0.835-8.833-1.975-13.692-3.274
		C181.364,362.089,157.292,357.942,153.353,337.23z M249.466,338.812c-4.296,0.012-11.737,2.621-17.315,3.927
		c0.634-5.346,8.529-5.64,13.286-8.119C243.439,339.101,248.632,335.817,249.466,338.812z M196.915,397.391
		c-1.401,5.351-3.54-5.706-6.49,0.348c-0.093-3.856-1.52-5.8-4.311-5.778c-0.241,1.222-0.891,2.157-1.955,2.808
		c-5.585-6.685-8.153-14.345-13.368-19.715c4.357-1.139,2.027-6.922,4.924-9.073c14.648,5.938,26.417,12.476,41.73,8.891
		c0.201,1.37,0.977,1.922,2.013,2.094c9.499-5.533,22.873-6.092,31.232-3.969c0.458,4.963,8.6,8.08,3.724,11.618
		c-0.923-5.807-5.759-11.95-7.405-9.317c-0.843,1.345,6.127,5.068,4.091,9.093c-1.329-2.082-2.045-5.049-4.315-5.777
		c-0.205,2.668,1.622,10.038,7.122,7.73c-0.219,1.5,2.917,2.879,0.713,3.968c-0.141-4.158-3.148-2.764-3.319-0.221
		c4.077,2.125,5.507,8.057,11.235,7.812c-0.045-0.959-0.54-2.229,0.364-2.525c2.187,3.182,10.051-1.796,13.123,0.101
		c-13.463-0.449-25.26,13.673-40.548,11.374c2.537-1.638,3.897,0.217,5.412-1.789c-0.194-1.165-3.801-1.914-0.428-2.38
		c1.032-2.689,1.815,3.286,4.394,1.667c-0.478-3.969-3.521-4.254-4.598-7.365c4.091-0.221,4.19,5.289,8.282,5.068
		c-4.252-3.873-6.31-10.9-10.135-15.383c5.127-0.155,2.801,4.325,6.043,6.286c-0.178-1.048,1.262-0.975,1.303-1.87
		c-2.834-4.628-6.182-13.447-13.307-14.813c2.22,4.514,4.414,7.114,5.312,11.333c-5.102,0.243-3.055-6.947-8.709-7.445
		c2.716,5.411,6.142,9.804,9.849,13.794c-1.163,0.347-2.98,0.242-3.034,1.361c2.066,0.701,2.301,4.017,3.523,5.922
		c-3.103,0.428-3.82-7.772-7.203-3.622c0.208,2.36,2.232,2.116,2.441,4.477c-1.443,0.155-1.714,1.122-1.159,2.666
		c0.437-0.082,1.014,0.48,0.141,0.791c-0.976-1.259-1.973-2.492-4.396-1.668c0.318,0.446,2.522,2.699,0.57,3.175
		c-1.084-1.435-1.979-3.143-3.887-3.397c-2.2,1.618,2.511,4.22-0.875,4.252c-0.905-2.359-1.211-5.581-4.172-4.983
		c0.078,1.885,0.677,3.021,1.508,3.822c-3.472,1.337-2.568-3.629-5.472-3.109c-2.269,0.272,1.535,4.77-0.734,5.044
		c-2.227-1.459-1.85-6.657-4.598-7.365c-3.168,0.341,0.774,5.632-1.242,6.773c-1.445-2.246-2.157-5.548-3.804-7.505
		c-1.59,0.975,0.066,4.211-1.524,5.188c-1.701-1.879-1.059-7.128-4.458-6.57c0.806,3.249-0.487,3.279,1,5.555
		C197.483,405.892,199.371,398.521,196.915,397.391z M199.887,423.068c4.283,8.816,11.477,13.447,17.478,19.795
		C210.515,438.926,199.921,430.197,199.887,423.068z M227.907,437.693c1.137,3.691,4.383,4.347,7.486,5.212
		c-4.829,0.134-9.262,4.181-13.491,2.42c4.149-1.674,6.59-0.347,8.443-3.155c-4.052-1.492-5.331-6.974-10.294-7.159
		c1.434,1.318,4.529,5.403,3.665,6.713c-3.305-2.238-5.444-6.15-9.503-7.302c0.266,2.024,4.161,3.897,2.584,5.265
		c-6.017-5.87-13.618-11.772-14.587-21.95c-1.404-1.752-2.798,1.403-3.318-0.223c1.148-0.357,0.382-2.05,0.225-3.317
		c10.991-5.052,20.797,1.539,32.083,0.792c7.383-0.488,12.838-4.743,21.287-4.638c5.989,7.025,10.2,16.612,18.41,20.446
		c-0.158-1.097-0.687-1.676-1.22-2.24c7.827-1.042,13.765-7.081,19.126-7.526c-2.989,5.018-7.998,4.406-12.492,7.976
		c0.953-0.043,2.224-0.542,2.521,0.369c-13.054,8.084-30.457,7.116-42.645,13.387C234.46,440.223,229.419,437.221,227.907,437.693z
		 M250.287,457.431c-1.781-2.457-7.893-3.927-6.979-6.938C244.817,453.341,250.749,455.063,250.287,457.431z M250.449,449.212
		c2.622,3.216,6.4,4.773,8.851,8.237C255.603,456.257,247.818,453.201,250.449,449.212z M254.131,446.91
		c3.101,2.866,5.868,6.205,8.991,9.036C260.681,456.762,253.901,449.938,254.131,446.91z M259.176,447.644
		c2.26,1.08,4.887,1.626,5.758,4.698C261.169,453.433,261.222,449.027,259.176,447.644z M269.045,452.426
		c-1.049-1.874-5.837-3.522-4.314-5.779C265.287,449.222,270.251,450.622,269.045,452.426z M275.618,447.969
		c0.073,5.215,3.305,5.893,4.884,8.952c-6.507,0.621-7.221-8.327-3.868-12.411c1.585,3.71,4.461,5.565,6.47,8.667
		C279.051,453.681,279.316,447.973,275.618,447.969z M277.508,440.257c4.672,1.616,8.102,10.3,9.707,12.999
		C283.79,449.196,278.881,447.267,277.508,440.257z M281.702,436.226c3.317,6.542,8.067,11.025,12.651,15.748
		C287.996,450.469,281.599,443.71,281.702,436.226z M287.622,432.708c3.127,8.483,10.503,16.168,14.954,19.433
		C296.282,450.154,280.851,437.935,287.622,432.708z M321.131,441.437c-5.224-0.476-7.799-4.759-12.533-5.939
		c-2.755-3.698-4.692-8.562-8.482-10.765c1.59,11.079,13.077,16.429,21.077,21.605c-7.889-0.305-11.17-7.229-18.007-9.051
		c3.27,5.286,8.418,7.86,12.737,11.637c-9.204-1.745-15.996-12.268-22.318-14.831c2.142,4.906,5.467,8.114,8.627,11.554
		c-6.185-2.421-10.951-6.884-13.308-14.812c5.301,0.567,1.838-0.644,4.479-2.439c2.314,2.656,3.085,7.54,7.771,6.793
		c-1.836-3.682-4.126-6.713-5.965-10.395c2.318-1.542,2.625-0.649,5.557-0.999c-0.331-1.85-0.661-3.701-0.996-5.553
		c4.315-0.383,2.673,1.955,4.312,5.775c1.222,0.241,2.157,0.894,2.805,1.955c1.264,5.518,8.489,11.085,13.311,14.814
		C322.711,440.842,323.459,444.402,321.131,441.437z M367.378,429.856c2.952,0.744,5.71,1.769,7.995,3.479
		C372.218,432.878,368.944,432.596,367.378,429.856z M411.04,413.008c-8.265-0.439-15.444-7.738-22.483-6.61
		c1.187,0.388,4.67,2.472,2.444,4.473c-5.1-1.332-10.952-6.866-15.058-6.305c7.338,6.087,19.953,9.912,26.288,14.121
		c-10.366,0.923-17.566-8.017-25.8-6.835c7.216,4.597,16.042,6.889,23.341,11.368c-7.556,0.545-10.836-5.056-18.74-4.005
		c2.903,3.476,8.596,2.947,11.738,6.084c-10.666-1.974-19.993-5.863-28.241-11.311c0.282,2.821-3.313-1.46-3.03,1.361
		c8.019,5.775,18,8.728,27.591,12.25c-7.066,0.496-13.739-4.864-20.042-2.138c2.379,2.256,10.521,1.482,9.867,4.783
		c-9.07-0.661-16.224-9.211-24.354-7.915c2.983,4.031,9.62,2.807,12.023,7.669c-8.869,0.428-13.408-10.661-21.178-8.482
		c4.694,7.231,16.224,9.94,19.94,15.261c-10.254-3.231-17.488-10.804-27.228-14.772c5.191,8.513,17.491,12.118,22.098,18.147
		c-3.492-2.451-7.764-2.886-11.598-5.287c-6.15-3.853-10.883-12.222-17.64-11.578c6.273,7.288,14.267,12.104,21.957,17.354
		c-11.439-2.853-18.266-12.34-27.799-17.944c3.837,9.464,15.754,12.627,19.719,18.579c-10.152-3.712-16.575-12.776-26.065-17.438
		c4.809,9.396,16.333,14.45,21.589,19.877c-11.822-5.296-21.848-13.182-29.076-25.082c-1.055,0.189-2.116,0.378-3.171,0.569
		c1.396,2.647,3.078,4.888,5.899,5.49c2.009,8.811,10.052,11.459,16.255,17.56c-14.125-3.788-24.252-17.047-28.626-31.718
		c5.342-1.359,3.562,7.524,8.566,6.653c-1.762-5.455-3.86-10.422-7.328-13.43c0.353-4.278,0.824-3.486-1.931-6.203
		c2.111-0.152,4.019-0.448,2.746-2.952c2.334-0.602,3.225,2.445,4.905-0.062c-0.468-2.987-3.432-2.39-4.176-4.985
		c3.832-0.512,3.896,4.392,8.65,2.546c-2.044-3.717-5.825-4.935-10.009-5.575c1.632-2.231,4.667-0.846,7.139-1.283
		c-1.454-2.899-5.482-2.099-7.345-4.415c5.134-1.367,7.837,6.012,11.963,2.767c-1.812-3.045-5.93-2.786-8.279-5.064
		c5.405-0.101,9.789,6.535,13.977,4.86c-2.99-4.69-12.865-4.784-13.896-8.971c7.945,1.554,13.479,6.579,21.182,8.484
		c-5.585-6.277-14.257-8.122-21.1-12.595c10.024,1.229,16.509,7.548,24.923,11.09c2.311,2.027,5.336,8.269,9.074,4.924
		c-7.033-6.858-16.266-10.56-24.193-16.134c11.958,2.113,19.38,10.739,29.096,16.07c-5.119-8.616-14.455-11.162-21.81-16.561
		c1.865-0.353,2.581,0.947,4.903-0.063c2.805,4.214,8.656,5.037,12.959,8.321c3.194,2.444,5.526,9.651,10.294,7.163
		c-5.891-6.831-13.497-11.207-20.873-15.907c9.146,0.823,14.087,7.699,20.958,11.797c1.171,2.021,3.679,7.296,6.41,3.765
		c-4.468-5.223-9.717-9.329-15.405-12.797c10.63,1.345,14.677,12.168,24.047,15.335c-2.507-5.062-10.24-7.888-11.149-11.921
		c9.985,4.278,16.058,14.186,26.209,18.229c-5.058-6.71-11.428-11.524-18.355-15.544c2.323-1.011,2.58,0.952,4.902-0.061
		c0.233,1.995,1.687,2.23,2.301,3.682c15.821,6.872,30.482,20.734,43.561,28.219c-9.031-1.994-18.308-8.943-25.575-10.152
		C396.265,404.298,404.095,408.02,411.04,413.008z M409.227,416.611c-5.162-2.562-12.736-1.657-16.644-6.025
		C397.826,408.757,406.794,414.5,409.227,416.611z M414.336,390.302c3.935,3.88,5.318,5.397,8.992,9.031
		c-4.476,1.108-5.07-3.359-9.438-2.399c2.01,2.454,8.239,4.087,7.768,6.795c-4.235-1.558-7.195-4.958-12.389-5.145
		c2.096,3.637,6.753,3.604,9.359,6.508c-7.108,0.564-10.592-4.071-16.501-5.227c-6.436-8.055-19.748-11.535-23.967-19.454
		c5.86,0.931,15.367-8.194,25.247-5.35c-5.95-5.096-17.67-7.201-19.797-14.465c4.834,2.377,9.692,10.017,15.341,7.893
		c-1.757-2.461-5.528-2.032-6.694-5.351c5.464,1.141,11.277,7.064,15.85,6.166c-2.755-2.026-4.92-4.907-7.12-7.732
		c6.657,4.741,15.423,11.766,20.083,16.052c-7.418-3.805-13.618-9.357-21.834-7.548c9.059,6.61,23.422,5.595,29.238,16.866
		c-4.695-1.911-10.157-8.011-14.402-7.241c3.887,5.059,10.597,6.056,14.323,11.354c-5.216,0.839-5.964-4.742-10.665-4.64
		c1.772,3.777,5.433,4.843,7.266,8.525C420.082,395.991,418.647,388.576,414.336,390.302z M431.258,393.755
		c-1.612,0.582-2.303,1.901-3.883,0.751c0.018-2.294,1.885-1.31,4.112-1.415C431.41,393.312,431.334,393.536,431.258,393.755z
		 M429.655,375.263c-8.48-4.93-21.139-13.251-22.953-22.908c8.901,7.505,16.187,17.329,25.618,24.068
		C431.823,380.115,430.229,375.6,429.655,375.263z M432.991,430.361c3.813,0.51,7.147,1.708,10.378,3.052
		C438.693,434.149,435.265,433.086,432.991,430.361z M451.87,279.945c0.686,1.377,1.189,3.048,1.565,4.914L451.87,279.945z
		 M474.352,345.945c6.886-10.957,13.576-21.756,15.216-33.855c-6.552,12.797-11.498,26.717-21.14,37.375
		c-2.488-1.779,0.03-5.967,0.17-8.221c10.083-10.577,16.656-29.613,23.023-45.087c1.076,6.297-1.976,9.729-2.192,15.136
		c0.967-0.354,1.399-1.528,1.729,0.509c1.271,3.891-0.353,5.771,0.915,9.664c-8.542,13.732-13.157,30.197-25.327,41.405
		C466.321,355.014,470.931,351.393,474.352,345.945z M466.156,368.712c10.726-12.215,16.856-27.626,26.265-40.756
		c-1.053,14.776-11.668,22.897-15.727,35.586c-6.406,2.033-6.804,11.926-11.638,12.739
		C466.79,373.412,467.936,372.832,466.156,368.712z M464.814,388.612c-0.044-11.467,8.696-18.337,14.117-26.29
		c5.311-7.788,8.223-16.759,14.549-23.906C489.502,359.024,475.158,372.428,464.814,388.612z M487.337,409.139
		c3.57-1.239,3.852-8.414,7.731-7.122C492.197,403.739,491.681,410.748,487.337,409.139z"/>
	<path class="st1" d="M284.944,239.89c1.506-2.555-4.471-2.851-6.409-3.765C279.144,239.577,283.581,237.528,284.944,239.89z"/>
	<path class="st1" d="M317.547,334.782c-5.254-8.097-10.356-16.398-15.812-24.193C304.649,318.056,309.516,331.343,317.547,334.782z
		"/>
	<path class="st1" d="M383.062,348.41c-3.314-2.756-7.582-6.275-10.721-9.541c-4.875-5.059-7.563-12.886-14.104-14.67
		c10.346,12.641,17.171,24.422,31.802,31.147C390.264,352.43,385.997,350.854,383.062,348.41z"/>
	<path class="st1" d="M502.635,307.285c-0.577,11.827-2.271,19.896-1.441,33.022c0.791-0.145,1.582-0.286,2.378-0.429
		c-2.756,1.327-2.03,5.068-1.749,8.507c3.697-0.878,3.252-9.763,0.527-10.744C506.448,328.228,503.515,316.556,502.635,307.285z"/>
	<path class="st1" d="M257.119,399.685c-1.943-3.527-4.123-6.714-7.916-7.587C251.76,394.746,253.824,398.104,257.119,399.685z"/>
	<path class="st1" d="M359.992,411.524c-2.786-3.321-7.017-4.557-10.299-7.16C350.093,407.14,354.774,412.354,359.992,411.524z"/>
	<path class="st1" d="M358.893,419.092c3.575-3.184-5.068-7.556-7.487-5.206c4.857,4.995,10.256,9.217,18.8,8.908
		C366.963,420.806,364.168,418.161,358.893,419.092z"/>
</g>
</svg>
